<?xml version="1.0" encoding="UTF-8"?>
<!-- Generator: visioncortex VTracer 0.6.3 -->
<svg version="1.1" xmlns="http://www.w3.org/2000/svg" width="1280" height="1280">
<path d="M0 0 C0.33 0.66 0.66 1.32 1 2 C1.63 1.95 2.26 1.91 2.91 1.86 C9.25 1.59 13.69 2.44 19 6 C19.66 6.66 20.32 7.32 21 8 C21.96 8.93 21.96 8.93 22.94 9.88 C25 12 25 12 26.56 14.19 C27.96 16.29 27.96 16.29 31 17 C32.65 18.71 32.65 18.71 34.38 20.81 C37.04 23.97 39.76 26.43 43 29 C44.54 30.77 46.02 32.57 47.47 34.41 C49.17 36.17 50.77 37.03 53 38 C53 38.66 53 39.32 53 40 C55.24 41.95 57.34 43.67 60 45 C60 45.66 60 46.32 60 47 C60.66 47 61.32 47 62 47 C62.26 47.59 62.52 48.17 62.79 48.77 C64.08 51.14 65.47 52.73 67.38 54.62 C67.96 55.22 68.55 55.81 69.15 56.41 C71.01 58.01 72.77 59.01 75 60 C74.67 60.99 74.34 61.98 74 63 C74.6 63.1 75.2 63.19 75.82 63.29 C78.48 64.16 79.26 65.17 80.94 67.38 C82.89 69.81 84.06 71.03 86.81 72.62 C89 74 89 74 89.81 76.69 C89.91 77.83 89.91 77.83 90 79 C90.66 79 91.32 79 92 79 C92.66 79.66 93.32 80.32 94 81 C94.87 81.64 95.73 82.28 96.62 82.94 C97.41 83.62 98.19 84.3 99 85 C99 85.99 99 86.98 99 88 C99.99 88.33 100.98 88.66 102 89 C102.33 89.66 102.66 90.32 103 91 C103.8 91.47 104.61 91.95 105.44 92.44 C108 94 108 94 110 97 C110.99 97.66 111.98 98.32 113 99 C112.67 99.66 112.34 100.32 112 101 C113.49 100.5 113.49 100.5 115 100 C115.39 100.72 115.78 101.44 116.19 102.19 C117.93 105.11 117.93 105.11 120.56 107.56 C123 110 123 110 124.06 112.25 C124.37 112.83 124.68 113.4 125 114 C125.62 114.13 126.23 114.26 126.87 114.39 C129.56 115.16 130.32 116.24 132 118.44 C134.11 121.18 135.81 122.63 139 124 C138.67 124.99 138.34 125.98 138 127 C138.6 127.1 139.2 127.19 139.82 127.29 C142.48 128.16 143.26 129.17 144.94 131.38 C146.89 133.81 148.06 135.03 150.81 136.62 C153 138 153 138 153.81 140.69 C153.91 141.83 153.91 141.83 154 143 C154.66 143 155.32 143 156 143 C156.66 143.66 157.32 144.32 158 145 C158.87 145.64 159.73 146.28 160.62 146.94 C161.41 147.62 162.19 148.3 163 149 C163 149.99 163 150.98 163 152 C163.99 152.33 164.98 152.66 166 153 C166.33 153.66 166.66 154.32 167 155 C167.8 155.47 168.61 155.95 169.44 156.44 C172 158 172 158 174 161 C174.99 161.66 175.98 162.32 177 163 C176.67 163.66 176.34 164.32 176 165 C176.99 164.67 177.98 164.34 179 164 C179.59 165.08 179.59 165.08 180.19 166.19 C181.93 169.11 181.93 169.11 184.56 171.56 C187 174 187 174 188.06 176.25 C188.37 176.83 188.68 177.4 189 178 C189.93 178.2 189.93 178.2 190.87 178.39 C193.56 179.16 194.32 180.24 196 182.44 C198.11 185.18 199.81 186.63 203 188 C202.67 188.99 202.34 189.98 202 191 C202.6 191.1 203.2 191.19 203.82 191.29 C206.48 192.16 207.26 193.17 208.94 195.38 C210.89 197.81 212.06 199.03 214.81 200.62 C215.53 201.08 216.26 201.53 217 202 C217.16 202.85 217.33 203.69 217.5 204.56 C217.66 205.37 217.83 206.17 218 207 C218.7 207.27 219.4 207.54 220.12 207.81 C223.95 209.39 225.63 211.9 228.23 215.04 C229.85 216.83 231.26 218 233.31 219.25 C236.15 221.1 236.66 222.03 238 225 C239.32 226.01 240.66 227.01 242 228 C242.68 228.87 243.36 229.73 244.06 230.62 C245.85 233.25 245.85 233.25 249 234 C250.81 236.64 251.98 238.95 253 242 C253.87 242.19 253.87 242.19 254.75 242.38 C258.1 243.31 259.65 245.48 262 248 C262.83 248.8 263.65 249.61 264.5 250.44 C267 253 267 253 269.25 256.12 C272.46 259.93 272.46 259.93 281 262 C281 277.84 281 293.68 281 310 C277.04 311.98 277.04 311.98 273 314 C270.4 315.62 269.22 316.6 267.73 319.28 C265.72 322.45 263.43 324.58 260.62 327.06 C259.69 327.9 258.75 328.74 257.79 329.6 C256.01 331.13 254.21 332.62 252.36 334.06 C250.14 335.89 248.39 337.72 246.56 339.94 C243.64 343.37 240.47 346.11 237 349 C235.15 351 233.38 353.06 231.61 355.13 C229.83 357.2 228.04 359.18 226 361 C225.34 361 224.68 361 224 361 C223.62 361.87 223.62 361.87 223.24 362.75 C221.84 365.28 220.26 366.93 218.19 368.94 C217.47 369.64 216.75 370.34 216.01 371.06 C215.35 371.7 214.68 372.34 214 373 C213.17 373.83 212.35 374.65 211.5 375.5 C197.67 389.33 183.83 403.17 170 417 C169.34 417.69 168.67 418.37 167.99 419.08 C167.27 419.82 166.55 420.55 165.81 421.31 C165.14 422.01 164.46 422.71 163.77 423.43 C162 425 162 425 160 425 C159.76 425.56 159.53 426.12 159.28 426.7 C157.71 429.52 155.79 431.48 153.5 433.75 C152.71 434.55 151.91 435.35 151.09 436.17 C149 438 149 438 147 438 C146.62 438.87 146.62 438.87 146.24 439.75 C144.84 442.28 143.26 443.93 141.19 445.94 C140.47 446.64 139.75 447.34 139.01 448.06 C138.35 448.7 137.68 449.34 137 450 C136.17 450.83 135.35 451.65 134.5 452.5 C125 462 115.5 471.5 106 481 C105.34 481.69 104.67 482.37 103.99 483.08 C103.27 483.82 102.55 484.55 101.81 485.31 C101.14 486.01 100.46 486.71 99.77 487.43 C98 489 98 489 96 489 C95.76 489.56 95.53 490.12 95.28 490.7 C93.71 493.52 91.79 495.48 89.5 497.75 C88.71 498.55 87.91 499.35 87.09 500.17 C85 502 85 502 83 502 C82.62 502.87 82.62 502.87 82.24 503.75 C80.84 506.28 79.26 507.93 77.19 509.94 C76.47 510.64 75.75 511.34 75.01 512.06 C74.02 513.02 74.02 513.02 73 514 C72.17 514.83 71.35 515.65 70.5 516.5 C51 536 51 536 48.9 538.1 C47.46 539.53 46.04 540.98 44.62 542.44 C41.33 545.66 37.87 548.68 34.4 551.72 C31.91 553.96 31.91 553.96 29.88 556.78 C29.26 557.51 28.64 558.25 28 559 C27.01 559 26.02 559 25 559 C24.9 559.58 24.79 560.15 24.69 560.75 C23.87 563.43 22.92 564.95 21 567 C19.36 567.72 17.69 568.39 16 569 C15.34 569.66 14.68 570.32 14 571 C8.88 572.24 3.73 572.18 -1.5 572.19 C-2.33 572.2 -3.16 572.21 -4.01 572.22 C-11.36 572.24 -16.41 571.02 -22 566 C-23.67 564.33 -25.33 562.67 -27 561 C-27.33 561 -27.66 561 -28 561 C-30.92 551.15 -32.83 534.51 -28 525 C-25.26 521.39 -22.21 518.19 -19 515 C-18.19 514.14 -18.19 514.14 -17.37 513.26 C-16.3 512.12 -15.16 511.05 -14 510 C-13.34 510 -12.68 510 -12 510 C-11.34 508.68 -10.68 507.36 -10 506 C-9.34 506 -8.68 506 -8 506 C-7.77 505.44 -7.55 504.89 -7.31 504.31 C-5.62 501.34 -3.53 499.28 -1 497 C-0.34 497 0.32 497 1 497 C1.66 495.68 2.32 494.36 3 493 C3.66 493 4.32 493 5 493 C5.26 492.41 5.52 491.83 5.79 491.22 C7.07 488.87 8.43 487.32 10.32 485.42 C10.99 484.74 11.66 484.06 12.36 483.36 C13.45 482.28 13.45 482.28 14.56 481.17 C15.31 480.42 16.06 479.67 16.83 478.9 C18.4 477.32 19.98 475.75 21.57 474.17 C24 471.75 26.42 469.32 28.84 466.89 C30.37 465.36 31.9 463.83 33.44 462.3 C34.16 461.57 34.89 460.83 35.64 460.08 C36.31 459.41 36.99 458.75 37.68 458.06 C38.28 457.47 38.87 456.87 39.48 456.26 C41 455 41 455 43 455 C43.24 454.44 43.47 453.88 43.72 453.3 C45.29 450.48 47.21 448.52 49.5 446.25 C50.29 445.45 51.09 444.65 51.91 443.83 C54 442 54 442 56 442 C56.24 441.44 56.47 440.88 56.72 440.3 C58.29 437.48 60.21 435.52 62.5 433.25 C63.29 432.45 64.09 431.65 64.91 430.83 C67 429 67 429 69 429 C69.27 428.41 69.54 427.81 69.82 427.2 C71 425 72.19 423.56 73.95 421.79 C74.54 421.19 75.14 420.59 75.75 419.97 C76.71 419.02 76.71 419.02 77.69 418.05 C78.35 417.39 79 416.73 79.68 416.05 C81.07 414.66 82.46 413.27 83.86 411.88 C86 409.75 88.13 407.61 90.26 405.47 C91.61 404.12 92.96 402.77 94.31 401.42 C94.95 400.78 95.59 400.13 96.25 399.47 C100.77 395 100.77 395 103 395 C103.66 393.68 104.32 392.36 105 391 C105.66 391 106.32 391 107 391 C107.23 390.44 107.45 389.89 107.69 389.31 C109.38 386.34 111.47 384.28 114 382 C114.66 382 115.32 382 116 382 C116.66 380.68 117.32 379.36 118 378 C118.66 378 119.32 378 120 378 C120.23 377.44 120.45 376.89 120.69 376.31 C122.38 373.34 124.47 371.28 127 369 C127.66 369 128.32 369 129 369 C129.66 367.68 130.32 366.36 131 365 C131.66 365 132.32 365 133 365 C133 364.34 133 363.68 133 363 C133.66 363 134.32 363 135 363 C135.31 362.2 135.31 362.2 135.63 361.38 C137.54 358.06 140.21 355.59 142.94 352.94 C143.48 352.41 144.01 351.88 144.57 351.33 C146.04 349.89 147.52 348.44 149 347 C149.77 346.17 149.77 346.17 150.55 345.33 C152 344 152 344 154 344 C154.37 343.12 154.37 343.12 154.75 342.21 C156.17 339.69 157.69 338.37 159.94 336.56 C162.34 334.54 163.91 333.16 165.5 330.44 C167.48 327.22 170.06 325.61 173.16 323.53 C175.2 321.84 175.9 320.37 177 318 C176.34 318 175.68 318 175 318 C103.31 317.96 31.62 317.91 -40.07 317.84 C-41.14 317.84 -42.21 317.84 -43.32 317.84 C-66.58 317.82 -89.84 317.79 -113.1 317.77 C-124.51 317.76 -135.92 317.75 -147.32 317.74 C-148.46 317.74 -149.59 317.74 -150.76 317.73 C-187.57 317.7 -224.39 317.67 -261.2 317.65 C-299.02 317.63 -336.84 317.6 -374.66 317.56 C-380 317.55 -385.34 317.54 -390.68 317.54 C-391.73 317.54 -392.78 317.53 -393.86 317.53 C-410.79 317.51 -427.73 317.51 -444.66 317.5 C-461.67 317.5 -478.68 317.48 -495.69 317.45 C-505.81 317.44 -515.92 317.43 -526.04 317.44 C-532.79 317.44 -539.54 317.43 -546.29 317.41 C-550.14 317.4 -553.99 317.4 -557.84 317.41 C-561.98 317.42 -566.13 317.4 -570.27 317.38 C-571.47 317.39 -572.67 317.4 -573.91 317.4 C-580.03 317.36 -584.64 317.08 -590 314 C-592.74 310.61 -593.4 307.86 -593.62 303.56 C-593.69 302.44 -593.75 301.33 -593.81 300.18 C-593.84 299.53 -593.87 298.89 -593.9 298.23 C-594.02 295.59 -594.17 292.94 -594.31 290.29 C-594.42 288.28 -594.52 286.26 -594.62 284.25 C-594.68 283.26 -594.73 282.27 -594.78 281.25 C-594.83 280.33 -594.87 279.4 -594.91 278.45 C-594.95 277.62 -595 276.79 -595.04 275.93 C-595 274 -595 274 -594 273 C-593.73 271.23 -593.48 269.46 -593.25 267.69 C-592.58 263.82 -592.31 262.35 -589.62 259.38 C-585.55 257.24 -582.2 256.87 -577.62 256.87 C-576.52 256.87 -575.42 256.86 -574.29 256.86 C-573.08 256.86 -571.87 256.86 -570.62 256.86 C-569.33 256.86 -568.04 256.86 -566.72 256.85 C-563.12 256.84 -559.52 256.84 -555.92 256.84 C-552.02 256.84 -548.11 256.83 -544.2 256.83 C-537.35 256.82 -530.49 256.81 -523.64 256.8 C-513.45 256.8 -503.26 256.78 -493.07 256.77 C-475.93 256.74 -458.78 256.73 -441.64 256.71 C-424.67 256.69 -407.69 256.67 -390.71 256.65 C-389.66 256.65 -388.6 256.65 -387.51 256.65 C-382.16 256.64 -376.8 256.64 -371.45 256.63 C-333.48 256.58 -295.52 256.54 -257.56 256.5 C-220.68 256.46 -183.8 256.42 -146.91 256.37 C-145.78 256.37 -144.64 256.37 -143.47 256.37 C-132.06 256.35 -120.65 256.34 -109.23 256.33 C-85.98 256.3 -62.73 256.27 -39.48 256.24 C-38.42 256.24 -37.35 256.24 -36.25 256.24 C35.17 256.16 106.58 256.08 178 256 C176.53 252.88 175.19 251.05 172.5 248.88 C167.21 244.55 167.21 244.55 166.31 242.19 C164.64 239.39 162.58 238.16 159.85 236.44 C157.47 234.58 155.88 232.37 154 230 C151.74 227.61 149.4 225.31 147.06 223 C146.45 222.4 145.85 221.79 145.22 221.17 C144.03 219.99 142.84 218.81 141.65 217.64 C140.16 216.16 138.68 214.67 137.21 213.18 C135.06 210.96 135.06 210.96 132.62 209.19 C129.62 206.68 127.24 203.9 124.75 200.9 C122.97 198.97 121.13 197.53 119 196 C118 195 117 194 116 193 C115.34 192.55 114.68 192.09 114 191.62 C112 190 112 190 110.62 187.56 C108.6 184.37 106.14 183.02 103 181 C103 180.34 103 179.68 103 179 C100.69 176.49 98.34 174.26 95.62 172.19 C92.73 169.78 90.46 167.14 88.03 164.29 C84.22 159.99 80.08 156.02 76 152 C74.69 150.67 74.69 150.67 73.34 149.31 C71.08 146.98 71.08 146.98 68.62 145.19 C65.62 142.68 63.24 139.9 60.75 136.9 C58.97 134.97 57.13 133.53 55 132 C54 131 53 130 52 129 C51.34 128.55 50.68 128.09 50 127.62 C48 126 48 126 46.62 123.56 C44.6 120.37 42.14 119.02 39 117 C39 116.34 39 115.68 39 115 C36.69 112.49 34.34 110.26 31.62 108.19 C28.73 105.78 26.46 103.14 24.03 100.29 C20.22 95.99 16.08 92.02 12 88 C10.69 86.67 10.69 86.67 9.34 85.31 C7.08 82.98 7.08 82.98 4.62 81.19 C1.62 78.68 -0.76 75.9 -3.25 72.9 C-5.03 70.97 -6.87 69.52 -9 68 C-10.02 67.02 -11.02 66.02 -12 65 C-12.68 64.35 -12.68 64.35 -13.38 63.69 C-15 62 -15 62 -17.31 59.12 C-19.09 56.94 -20.9 55.22 -23.12 53.5 C-27.14 50.01 -28.97 46.16 -30 41 C-30.09 39.07 -30.13 37.14 -30.13 35.21 C-30.13 34.1 -30.14 33 -30.14 31.86 C-30.13 30.71 -30.13 29.56 -30.12 28.38 C-30.13 27.22 -30.13 26.06 -30.14 24.87 C-30.14 23.76 -30.13 22.66 -30.13 21.52 C-30.13 20.01 -30.13 20.01 -30.13 18.46 C-30 16 -30 16 -29 14 C-28.34 14 -27.68 14 -27 14 C-26.91 13.41 -26.81 12.81 -26.71 12.2 C-25.84 9.51 -24.73 8.54 -22.56 6.75 C-21.64 5.97 -21.64 5.97 -20.69 5.17 C-19 4 -19 4 -17 4 C-16.67 3.34 -16.34 2.68 -16 2 C-13.47 1.71 -11.03 1.53 -8.5 1.44 C-3.88 1.65 -3.88 1.65 0 0 Z " fill="#F7F7F7" transform="translate(999,353)"/>
<path d="M0 0 C1.06 -0 2.12 -0.01 3.21 -0.01 C4.98 -0.01 4.98 -0.01 6.78 -0.01 C8.65 -0.01 8.65 -0.01 10.56 -0.02 C14.05 -0.02 17.53 -0.02 21.02 -0.02 C24.8 -0.02 28.59 -0.03 32.37 -0.04 C39.88 -0.05 47.4 -0.05 54.92 -0.06 C63.91 -0.06 72.91 -0.07 81.91 -0.08 C103.66 -0.11 125.4 -0.13 147.15 -0.14 C154.35 -0.14 161.56 -0.15 168.76 -0.15 C207.02 -0.18 245.29 -0.2 283.55 -0.21 C292.42 -0.21 301.29 -0.22 310.16 -0.22 C311.26 -0.22 312.36 -0.22 313.49 -0.22 C349.23 -0.23 384.97 -0.26 420.71 -0.31 C457.43 -0.35 494.15 -0.38 530.88 -0.38 C536.06 -0.38 541.24 -0.38 546.42 -0.38 C547.44 -0.38 548.46 -0.38 549.52 -0.38 C565.96 -0.39 582.4 -0.41 598.84 -0.43 C615.35 -0.46 631.86 -0.47 648.38 -0.46 C658.2 -0.45 668.02 -0.46 677.83 -0.49 C684.39 -0.5 690.94 -0.5 697.49 -0.49 C701.23 -0.48 704.97 -0.48 708.71 -0.5 C712.73 -0.52 716.75 -0.51 720.77 -0.49 C721.94 -0.5 723.1 -0.51 724.31 -0.53 C733.03 -0.43 733.03 -0.43 736.79 2.67 C737.53 3.48 738.27 4.29 739.03 5.13 C732.24 9.66 724.21 8.34 716.4 7.63 C705.12 6.81 693.81 6.98 682.51 6.98 C679.01 6.98 675.51 6.97 672.01 6.97 C665.88 6.96 659.75 6.95 653.63 6.95 C644.52 6.94 635.41 6.93 626.3 6.92 C610.96 6.9 595.63 6.88 580.3 6.87 C559.34 6.85 538.38 6.83 517.43 6.8 C507.65 6.79 497.88 6.78 488.1 6.76 C487.13 6.76 486.15 6.76 485.14 6.76 C461.86 6.73 438.58 6.71 415.31 6.68 C413.78 6.68 413.78 6.68 412.22 6.68 C397.77 6.66 383.33 6.65 368.88 6.63 C351.35 6.61 333.83 6.6 316.31 6.58 C315.29 6.58 314.28 6.58 313.23 6.57 C290.02 6.55 266.8 6.52 243.59 6.5 C242.12 6.49 242.12 6.49 240.63 6.49 C230.87 6.48 221.11 6.47 211.35 6.46 C190.43 6.43 169.5 6.41 148.58 6.39 C133.32 6.37 118.05 6.36 102.79 6.34 C93.74 6.33 84.69 6.32 75.64 6.31 C69.57 6.31 63.51 6.3 57.44 6.29 C54 6.29 50.56 6.28 47.11 6.28 C33.87 6.28 20.64 6.17 7.4 5.75 C6.29 5.72 5.19 5.68 4.05 5.65 C2.53 5.6 2.53 5.6 0.98 5.54 C0.1 5.51 -0.79 5.48 -1.71 5.45 C-3.97 5.13 -3.97 5.13 -6.97 3.13 C-6.97 2.47 -6.97 1.81 -6.97 1.13 C-4.47 -0.12 -2.8 0 0 0 Z " fill="#A9A6A5" transform="translate(441.97357058525085,635.8700481653214)"/>
<path d="M0 0 C0.82 -0.01 1.64 -0.01 2.49 -0.02 C4.22 -0.03 5.96 -0.03 7.7 -0.04 C10.34 -0.05 12.98 -0.08 15.62 -0.11 C17.31 -0.12 19 -0.12 20.69 -0.12 C21.47 -0.14 22.25 -0.15 23.06 -0.16 C28.29 -0.14 31.89 0.77 36.54 3.2 C41.1 7.91 40.71 13.43 40.75 19.66 C40.75 20.48 40.76 21.3 40.76 22.15 C40.77 23.88 40.78 25.62 40.78 27.36 C40.79 30 40.82 32.64 40.86 35.28 C40.86 36.97 40.87 38.66 40.87 40.35 C40.88 41.13 40.9 41.91 40.91 42.72 C40.89 47.95 39.97 51.55 37.54 56.2 C32.84 60.76 27.31 60.37 21.09 60.41 C19.85 60.41 19.85 60.41 18.6 60.42 C16.86 60.43 15.13 60.44 13.39 60.44 C10.75 60.45 8.11 60.48 5.47 60.52 C3.78 60.52 2.09 60.53 0.4 60.53 C-0.38 60.54 -1.17 60.56 -1.97 60.57 C-7.2 60.55 -10.81 59.63 -15.46 57.2 C-20.01 52.5 -19.63 46.97 -19.66 40.75 C-19.67 39.51 -19.67 39.51 -19.68 38.26 C-19.69 36.52 -19.69 34.79 -19.7 33.05 C-19.71 30.41 -19.74 27.77 -19.77 25.13 C-19.78 23.44 -19.78 21.75 -19.79 20.06 C-19.8 19.28 -19.81 18.49 -19.82 17.69 C-19.8 12.46 -18.89 8.85 -16.46 4.2 C-11.75 -0.35 -6.23 0.03 0 0 Z M35.54 53.2 C34.55 54.69 34.55 54.69 33.54 56.2 C34.53 55.87 35.52 55.54 36.54 55.2 C36.21 54.54 35.88 53.88 35.54 53.2 Z " fill="#F7F7F7" transform="translate(117.45703125,609.796875)"/>
<path d="M0 0 C0.84 -0.01 1.68 -0.01 2.54 -0.02 C4.31 -0.03 6.07 -0.03 7.84 -0.03 C10.52 -0.04 13.21 -0.08 15.89 -0.11 C17.61 -0.12 19.34 -0.12 21.06 -0.12 C22.25 -0.15 22.25 -0.15 23.47 -0.17 C29.08 -0.12 33.58 0.97 38.16 4.34 C41.04 8.53 40.47 13.87 40.46 18.8 C40.47 19.71 40.47 20.62 40.48 21.56 C40.48 23.48 40.48 25.41 40.48 27.33 C40.48 30.26 40.5 33.19 40.53 36.12 C40.53 37.99 40.53 39.87 40.53 41.74 C40.54 42.61 40.55 43.48 40.56 44.38 C40.52 49.38 40.24 53.18 37.16 57.34 C31.88 60.46 27.24 60.78 21.2 60.73 C20.36 60.74 19.52 60.74 18.65 60.74 C16.89 60.75 15.12 60.74 13.36 60.73 C10.67 60.71 7.99 60.73 5.3 60.75 C3.58 60.74 1.86 60.74 0.13 60.73 C-0.66 60.74 -1.46 60.75 -2.28 60.75 C-7.51 60.69 -11.25 59.96 -15.84 57.34 C-19.79 53.05 -19.29 47.95 -19.27 42.43 C-19.27 41.48 -19.28 40.52 -19.29 39.54 C-19.29 37.52 -19.29 35.51 -19.28 33.49 C-19.27 30.41 -19.3 27.34 -19.33 24.26 C-19.34 22.3 -19.34 20.33 -19.33 18.37 C-19.34 17.46 -19.35 16.54 -19.37 15.6 C-19.31 10.08 -18.78 6.54 -14.84 2.34 C-10.07 -0.06 -5.23 0.01 0 0 Z M35.16 5.34 C36.16 7.34 36.16 7.34 36.16 7.34 Z M36.16 7.34 C37.16 9.34 37.16 9.34 37.16 9.34 Z M37.16 48.34 C38.16 50.34 38.16 50.34 38.16 50.34 Z M36.16 51.34 C37.16 54.34 37.16 54.34 37.16 54.34 Z M35.16 54.34 C34.83 55 34.5 55.66 34.16 56.34 C34.82 56.34 35.48 56.34 36.16 56.34 C35.83 55.68 35.5 55.02 35.16 54.34 Z " fill="#F7F6F6" transform="translate(219.8359375,609.6640625)"/>
<path d="M0 0 C0.82 -0.01 1.64 -0.01 2.49 -0.02 C4.22 -0.03 5.96 -0.03 7.7 -0.04 C10.34 -0.05 12.98 -0.08 15.62 -0.11 C17.31 -0.12 19 -0.12 20.69 -0.12 C21.47 -0.14 22.25 -0.15 23.06 -0.16 C29.05 -0.14 34.13 0.79 38.54 5.2 C39.99 14.14 39.7 23.43 39.67 32.45 C39.67 34.26 39.67 34.26 39.68 36.09 C39.66 54 39.66 54 36.23 57.7 C31.31 60.45 26.63 60.38 21.09 60.41 C19.85 60.41 19.85 60.41 18.6 60.42 C16.86 60.43 15.13 60.44 13.39 60.44 C10.75 60.45 8.11 60.48 5.47 60.52 C3.78 60.52 2.09 60.53 0.4 60.53 C-0.38 60.54 -1.17 60.56 -1.97 60.57 C-7.2 60.55 -10.81 59.64 -15.46 57.2 C-19.87 52.5 -19.63 47.51 -19.66 41.37 C-19.67 40.5 -19.67 39.63 -19.68 38.74 C-19.69 36.9 -19.69 35.06 -19.7 33.22 C-19.71 30.41 -19.74 27.61 -19.77 24.8 C-19.78 23.01 -19.78 21.22 -19.79 19.43 C-19.8 18.6 -19.81 17.76 -19.82 16.9 C-19.8 11.92 -19.19 8.54 -16.46 4.2 C-11.65 -0.3 -6.29 0.03 0 0 Z M35.54 51.2 C34.88 52.85 34.22 54.5 33.54 56.2 C34.86 55.54 36.18 54.88 37.54 54.2 C36.88 53.21 36.22 52.22 35.54 51.2 Z " fill="#F5F5F5" transform="translate(322.45703125,609.796875)"/>
<path d="M0 0 C7.28 -0.06 14.56 -0.12 22.06 -0.19 C24.35 -0.21 26.63 -0.24 28.99 -0.27 C30.82 -0.28 32.64 -0.29 34.47 -0.29 C35.88 -0.32 35.88 -0.32 37.31 -0.34 C42.97 -0.34 47.08 0.09 52 3 C55.96 7.29 55.45 12.38 55.43 17.9 C55.44 18.86 55.44 19.81 55.45 20.8 C55.46 22.81 55.45 24.83 55.45 26.85 C55.44 29.92 55.47 33 55.5 36.08 C55.5 38.04 55.5 40 55.5 41.96 C55.51 43.34 55.51 43.34 55.53 44.74 C55.47 50.25 54.94 53.8 51 58 C45.85 60.7 40.25 60.26 34.57 60.2 C33.69 60.19 32.81 60.19 31.91 60.19 C28.65 60.18 25.39 60.15 22.12 60.12 C11.17 60.06 11.17 60.06 0 60 C0 40.2 0 20.4 0 0 Z M51 6 C51.33 6.99 51.66 7.98 52 9 C52.33 8.01 52.66 7.02 53 6 C52.34 6 51.68 6 51 6 Z M51 47 C52 50 52 50 52 50 Z M51 53 C52 55 52 55 52 55 Z " fill="#F7F7F7" transform="translate(0,610)"/>
<path d="M0 0 C2.58 2.44 4.77 4.6 6.56 7.69 C8.22 10.35 9.13 10.87 12 12 C14.29 12.31 14.29 12.31 16.62 12.25 C17.79 12.26 17.79 12.26 18.98 12.27 C21.23 12.18 21.23 12.18 23 10 C24.88 9.73 24.88 9.73 27 9.75 C27.7 9.74 28.4 9.74 29.12 9.73 C31 10 31 10 33 12 C35.19 12.3 35.19 12.3 37.76 12.25 C38.77 12.25 39.79 12.26 40.83 12.26 C41.96 12.26 43.08 12.25 44.24 12.25 C45.43 12.25 46.62 12.25 47.85 12.26 C51.18 12.26 54.51 12.26 57.84 12.25 C61.45 12.24 65.06 12.25 68.67 12.25 C75.02 12.26 81.36 12.26 87.7 12.25 C97.13 12.24 106.55 12.24 115.98 12.25 C131.84 12.25 147.7 12.25 163.56 12.24 C179.27 12.23 194.98 12.23 210.69 12.23 C211.66 12.23 212.64 12.23 213.64 12.23 C217.6 12.23 221.56 12.23 225.52 12.23 C262.7 12.23 299.88 12.22 337.06 12.2 C370.13 12.19 403.19 12.18 436.25 12.19 C438.38 12.19 440.5 12.19 442.62 12.19 C443.67 12.19 444.72 12.19 445.8 12.19 C451.09 12.19 456.37 12.19 461.65 12.19 C463.21 12.19 463.21 12.19 464.81 12.19 C492.4 12.19 519.99 12.18 547.59 12.18 C548.57 12.18 549.55 12.17 550.56 12.17 C554.51 12.17 558.45 12.17 562.4 12.17 C576.15 12.17 589.9 12.17 603.65 12.17 C621.36 12.17 639.07 12.16 656.79 12.15 C666.17 12.15 675.54 12.15 684.92 12.15 C691.18 12.15 697.43 12.14 703.68 12.14 C707.25 12.14 710.82 12.13 714.39 12.14 C718.22 12.14 722.06 12.13 725.89 12.13 C727.01 12.13 728.14 12.13 729.3 12.13 C730.31 12.13 731.32 12.13 732.36 12.13 C733.24 12.13 734.12 12.13 735.02 12.13 C737 12.22 737 12.22 738 11 C739.66 10.9 741.33 10.87 743 10.88 C744.36 10.87 744.36 10.87 745.75 10.87 C748 11 748 11 749 12 C753.07 12.33 753.07 12.33 756.82 10.97 C759.75 9.67 761.89 9.95 765.06 10.25 C766.11 10.34 767.15 10.43 768.22 10.52 C771 11 771 11 774 13 C773.67 14.98 773.34 16.96 773 19 C772.45 18.84 771.9 18.68 771.33 18.51 C768.71 17.94 766.34 17.87 763.65 17.87 C762.56 17.87 761.46 17.87 760.34 17.86 C759.13 17.87 757.93 17.87 756.69 17.87 C755.41 17.87 754.12 17.87 752.8 17.86 C749.23 17.86 745.65 17.86 742.07 17.86 C738.19 17.86 734.3 17.86 730.41 17.85 C723.6 17.85 716.78 17.84 709.97 17.84 C699.83 17.84 689.7 17.84 679.56 17.83 C663.56 17.82 647.56 17.81 631.55 17.8 C606.15 17.79 580.75 17.77 555.35 17.75 C545.58 17.74 535.82 17.73 526.05 17.73 C524.96 17.72 523.88 17.72 522.76 17.72 C496.92 17.7 471.07 17.68 445.23 17.66 C444.1 17.66 442.97 17.66 441.8 17.66 C415.41 17.64 389.02 17.62 362.63 17.61 C361.49 17.61 360.36 17.61 359.19 17.61 C350.04 17.61 340.89 17.6 331.74 17.6 C294.03 17.58 256.33 17.55 218.63 17.51 C213.31 17.51 207.98 17.5 202.66 17.5 C201.61 17.5 200.57 17.5 199.49 17.49 C182.61 17.48 165.74 17.47 148.86 17.47 C131.91 17.47 114.95 17.46 98 17.43 C87.92 17.42 77.84 17.42 67.76 17.42 C61.04 17.43 54.31 17.42 47.58 17.4 C43.75 17.4 39.91 17.39 36.07 17.4 C31.94 17.41 27.82 17.4 23.69 17.38 C21.89 17.39 21.89 17.39 20.06 17.4 C13.94 17.36 9.36 17.05 4 14 C0.41 9.93 0.33 5.2 0 0 Z " fill="#000000" transform="translate(405,653)"/>
<path d="M0 0 C0.66 0 1.32 0 2 0 C3.12 6.75 3.12 6.75 2 9 C1.34 9 0.68 9 0 9 C-0.33 9.66 -0.66 10.32 -1 11 C-1.72 10.84 -2.43 10.68 -3.17 10.51 C-5.96 10.01 -8.49 9.87 -11.32 9.87 C-12.38 9.87 -13.44 9.87 -14.54 9.87 C-15.7 9.87 -16.86 9.87 -18.06 9.87 C-19.3 9.87 -20.54 9.87 -21.82 9.87 C-25.29 9.87 -28.75 9.87 -32.21 9.87 C-35.97 9.87 -39.73 9.87 -43.49 9.87 C-50.09 9.86 -56.69 9.86 -63.29 9.87 C-73.09 9.87 -82.9 9.87 -92.71 9.87 C-110.23 9.86 -127.75 9.86 -145.26 9.86 C-160.59 9.87 -175.92 9.87 -191.25 9.87 C-192.26 9.87 -193.28 9.87 -194.32 9.87 C-198.45 9.87 -202.57 9.87 -206.69 9.86 C-245.38 9.86 -284.07 9.86 -322.75 9.87 C-357.15 9.87 -391.55 9.87 -425.95 9.87 C-464.57 9.86 -503.19 9.86 -541.81 9.87 C-545.93 9.87 -550.04 9.87 -554.16 9.87 C-555.17 9.87 -556.18 9.87 -557.23 9.87 C-572.55 9.87 -587.87 9.87 -603.19 9.86 C-620.61 9.86 -638.02 9.86 -655.43 9.87 C-665.19 9.87 -674.94 9.87 -684.7 9.87 C-691.2 9.86 -697.71 9.87 -704.21 9.87 C-707.93 9.87 -711.64 9.87 -715.36 9.87 C-719.34 9.87 -723.33 9.87 -727.32 9.87 C-728.49 9.87 -729.66 9.87 -730.86 9.87 C-731.92 9.87 -732.97 9.87 -734.06 9.87 C-734.97 9.87 -735.88 9.87 -736.82 9.87 C-739.05 9.86 -739.05 9.86 -741 11 C-742.48 10.91 -743.96 10.75 -745.44 10.56 C-754.91 8.91 -754.91 8.91 -763.73 11.16 C-766.25 14.05 -767.83 17.38 -769 21 C-769.33 21 -769.66 21 -770 21 C-770.29 16.05 -770.31 12.84 -767 9 C-760.59 5.33 -754.5 5.58 -747.25 5.62 C-745.96 5.61 -744.67 5.6 -743.34 5.6 C-739.74 5.59 -736.15 5.59 -732.56 5.6 C-728.65 5.6 -724.74 5.59 -720.83 5.58 C-713.98 5.57 -707.13 5.56 -700.28 5.57 C-690.1 5.57 -679.91 5.56 -669.73 5.54 C-652.59 5.51 -635.46 5.5 -618.33 5.5 C-601.36 5.49 -584.39 5.48 -567.43 5.46 C-566.37 5.46 -565.32 5.46 -564.23 5.46 C-558.87 5.45 -553.52 5.45 -548.16 5.44 C-510.22 5.4 -472.28 5.37 -434.34 5.35 C-397.48 5.33 -360.61 5.3 -323.75 5.26 C-322.05 5.26 -322.05 5.26 -320.31 5.26 C-308.9 5.25 -297.49 5.24 -286.08 5.23 C-262.84 5.2 -239.6 5.18 -216.36 5.16 C-214.75 5.16 -214.75 5.16 -213.12 5.16 C-141.75 5.09 -70.37 5.04 1 5 C0.67 3.35 0.34 1.7 0 0 Z " fill="#020201" transform="translate(1176,604)"/>
<path d="M0 0 C232.32 0 464.64 0 704 0 C704 0.99 704 1.98 704 3 C471.68 3 239.36 3 0 3 C0 2.01 0 1.02 0 0 Z " fill="#A9A6A5" transform="translate(438,663)"/>
<path d="M0 0 C218.79 0 437.58 0 663 0 C662.67 0.99 662.34 1.98 662 3 C443.54 3 225.08 3 0 3 C0 2.01 0 1.02 0 0 Z " fill="#AAA7A6" transform="translate(437,613)"/>
<path d="M0 0 C1.35 1.99 2.68 3.99 4 6 C6.21 7.42 8.48 8.58 10.81 9.79 C14.74 11.97 17.43 14.46 19 18.69 C19.77 21.2 19.77 21.2 22.19 21.88 C26.33 23.53 29.26 26.5 32 30 C32.7 32.23 32.7 32.23 33 34 C33.58 34.08 34.15 34.17 34.75 34.25 C37.68 35.23 39.05 36.64 41 39 C41 39.99 41 40.98 41 42 C41.58 42.26 42.15 42.52 42.75 42.79 C46.66 44.89 49.74 48.02 53 51 C53.83 51.74 54.65 52.49 55.5 53.25 C57 55 57 55 57 58 C57.99 58 58.98 58 60 58 C61.39 59.62 62.71 61.3 64 63 C65.65 64.69 67.31 66.35 69 68 C69.83 68.85 70.65 69.69 71.5 70.56 C73.97 73.06 73.97 73.06 76.81 75.19 C77.53 75.79 78.26 76.38 79 77 C79 77.66 79 78.32 79 79 C80.48 79.5 80.48 79.5 82 80 C82 80.66 82 81.32 82 82 C83.48 82.5 83.48 82.5 85 83 C86.24 84.47 87.48 85.95 88.68 87.45 C90.54 89.63 92.74 91.25 95 93 C98.72 96.53 102.05 100.32 105.35 104.23 C107.07 106.22 107.07 106.22 110 108 C110 108.66 110 109.32 110 110 C110.58 110.23 111.15 110.45 111.75 110.69 C114.57 112.33 116.01 114.44 118 117 C118.99 117.66 119.98 118.32 121 119 C121 119.99 121 120.98 121 122 C121.99 122 122.98 122 124 122 C127.4 125.05 130.16 128.45 133 132 C135.5 134.62 137.95 136.96 140.81 139.19 C141.53 139.79 142.26 140.38 143 141 C143 141.66 143 142.32 143 143 C143.99 143.33 144.98 143.66 146 144 C146 144.66 146 145.32 146 146 C146.99 146.33 147.98 146.66 149 147 C149 147.99 149 148.98 149 150 C149.9 150.15 149.9 150.15 150.81 150.31 C153.33 151.11 154.4 151.92 156 154 C156 154.99 156 155.98 156 157 C156.99 157 157.98 157 159 157 C160.72 158.64 160.72 158.64 162.5 160.81 C165 163.83 165 163.83 167.72 166.64 C169 168 169 168 169 170 C169.56 170.24 170.12 170.48 170.69 170.73 C175.38 173.31 179.11 177.36 183 181 C183.58 181.54 184.16 182.08 184.76 182.63 C185.89 183.71 186.95 184.85 188 186 C188 186.66 188 187.32 188 188 C188.62 188.25 189.24 188.5 189.88 188.75 C192.39 190.23 192.76 191.44 194 194 C194.99 194.33 195.98 194.66 197 195 C197.33 195.99 197.66 196.98 198 198 C198.99 198.33 199.98 198.66 201 199 C201 199.66 201 200.32 201 201 C201.62 201.31 202.24 201.62 202.88 201.94 C204.25 202.62 205.62 203.31 207 204 C207 204.99 207 205.98 207 207 C207.99 207.33 208.98 207.66 210 208 C210 208.66 210 209.32 210 210 C211.65 211.02 213.32 212.02 215 213 C217.17 214.56 219.03 216.17 221 218 C221 218.99 221 219.98 221 221 C221.66 221 222.32 221 223 221 C224.69 222.64 226.35 224.31 228 226 C229.08 226.84 230.16 227.67 231.25 228.5 C234.14 231.12 234.78 232.19 235 236 C229.45 234.71 227.48 232.38 224 228 C222.35 226.97 220.69 225.96 219 225 C219 224.34 219 223.68 219 223 C218.42 222.77 217.85 222.55 217.25 222.31 C215 221 215 221 213.06 218.56 C210.91 215.89 208.91 214.73 206 213 C205.67 212.01 205.34 211.02 205 210 C202.98 208.6 200.87 207.46 198.71 206.28 C198.15 205.86 197.58 205.44 197 205 C197 204.01 197 203.02 197 202 C196.44 201.94 195.89 201.88 195.31 201.81 C192.02 200.66 190.36 198.53 188 196 C187.24 195.3 186.47 194.6 185.69 193.88 C184 192 184 192 184 189 C183.01 189 182.02 189 181 189 C179.25 187.29 179.25 187.29 177.44 185.06 C175.09 182.07 175.09 182.07 172 180 C172 179.01 172 178.02 172 177 C171.44 176.94 170.89 176.88 170.31 176.81 C166 175.3 163.48 171.6 160.69 168.12 C157.55 164.28 153.76 161.22 150 158 C147.5 155.75 147.5 155.75 146 154 C146 153.01 146 152.02 146 151 C144.68 150.67 143.36 150.34 142 150 C142 149.34 142 148.68 142 148 C140.89 147.66 140.89 147.66 139.75 147.31 C136.44 145.73 135.01 144.04 133 141 C133 140.01 133 139.02 133 138 C132.1 137.85 132.1 137.85 131.19 137.69 C128.6 136.87 127.8 136.01 126 134 C125.13 133.2 124.27 132.39 123.38 131.56 C121.16 129.18 120.35 128.15 120 125 C119.01 125 118.02 125 117 125 C114.56 122.75 114.56 122.75 112 120 C111.24 119.3 110.47 118.6 109.69 117.88 C108 116 108 116 108 113 C107.38 112.9 106.76 112.79 106.12 112.69 C104 112 104 112 102 109 C101.38 108.73 100.76 108.46 100.12 108.19 C97.62 106.78 96.75 105.12 95.27 102.71 C92.73 99.28 89.25 96.73 86 94 C83.5 91.75 83.5 91.75 82 90 C82 89.01 82 88.02 82 87 C81.44 86.94 80.89 86.88 80.31 86.81 C77.02 85.66 75.36 83.53 73 81 C72.24 80.3 71.47 79.6 70.69 78.88 C69 77 69 77 69 74 C68.4 73.9 67.8 73.79 67.19 73.69 C64.6 72.87 63.8 72.01 62 70 C61.13 69.2 60.27 68.39 59.38 67.56 C57.16 65.18 56.35 64.15 56 61 C55.01 61 54.02 61 53 61 C51.25 59.29 51.25 59.29 49.44 57.06 C47.09 54.07 47.09 54.07 44 52 C44 51.01 44 50.02 44 49 C43.41 48.91 42.82 48.82 42.21 48.73 C39.41 47.8 38.46 46.54 36.62 44.25 C33.65 40.68 30.62 37.91 27 35 C25.31 33.35 23.64 31.69 22 30 C21.42 29.46 20.85 28.93 20.25 28.38 C19 27 19 27 18 24 C17.42 23.71 16.85 23.42 16.25 23.12 C12.07 21.04 9.48 17.72 6.94 13.88 C5.02 11.04 3.94 9.66 1 8 C-2.29 7.85 -2.29 7.85 -5.75 8.31 C-6.92 8.43 -8.09 8.55 -9.3 8.68 C-10.63 8.84 -10.63 8.84 -12 9 C-12.61 7.17 -12.61 7.17 -13 5 C-9.12 -0.75 -6.8 -1.76 0 0 Z " fill="#A8A5A4" transform="translate(1016,377)"/>
<path d="M0 0 C0.33 0.66 0.66 1.32 1 2 C1.66 1.98 2.33 1.95 3.01 1.93 C11.78 1.75 11.78 1.75 16 4 C13.46 6.54 11.23 6.97 7.81 8.06 C0.83 10.66 -2.02 13.93 -6 20 C-6.95 20.95 -7.91 21.89 -8.88 22.81 C-12.05 27.57 -11.9 32.39 -12 38 C-11.25 38.27 -10.5 38.54 -9.73 38.82 C-7.14 39.94 -5.43 41.04 -3.31 42.88 C-2.73 43.37 -2.15 43.86 -1.55 44.37 C0.9 46.95 1.88 49.65 3 53 C4.32 53.68 5.66 54.35 7 55 C8.63 56.69 8.63 56.69 10.12 58.56 C12.21 61.21 12.21 61.21 15 63 C15.5 64.49 15.5 64.49 16 66 C16.76 66.45 17.53 66.91 18.31 67.38 C21.33 69.2 22.86 71.22 25 74 C25.99 74.66 26.98 75.32 28 76 C28 76.99 28 77.98 28 79 C28.6 79.09 29.19 79.19 29.81 79.29 C32.49 80.16 33.34 81.23 35.06 83.44 C37.01 85.91 38.31 87.2 41 89 C41 89.99 41 90.98 41 92 C41.6 92.09 42.19 92.19 42.81 92.29 C45.49 93.16 46.34 94.23 48.06 96.44 C50.01 98.91 51.31 100.2 54 102 C54 102.99 54 103.98 54 105 C54.6 105.1 55.21 105.2 55.83 105.3 C58.41 106.13 59.12 106.99 60.75 109.12 C63 111.91 65.33 114.25 68.06 116.56 C70.58 118.69 72.8 120.81 74.88 123.38 C76.73 126.04 76.73 126.04 79 127 C79.33 127.99 79.66 128.98 80 130 C80.76 130.45 81.53 130.91 82.31 131.38 C85.33 133.2 86.86 135.22 89 138 C90.48 138.99 90.48 138.99 92 140 C92.33 140.99 92.66 141.98 93 143 C93.76 143.45 94.53 143.91 95.31 144.38 C98.33 146.2 99.86 148.22 102 151 C103.48 151.99 103.48 151.99 105 153 C105.33 153.99 105.66 154.98 106 156 C106.76 156.45 107.53 156.91 108.31 157.38 C111.33 159.2 112.86 161.22 115 164 C115.99 164.66 116.98 165.32 118 166 C118 166.99 118 167.98 118 169 C118.6 169.1 119.21 169.2 119.83 169.3 C122.41 170.13 123.12 170.99 124.75 173.12 C127 175.91 129.33 178.25 132.06 180.56 C134.58 182.69 136.8 184.81 138.88 187.38 C140.73 190.04 140.73 190.04 143 191 C143.33 191.99 143.66 192.98 144 194 C144.76 194.45 145.53 194.91 146.31 195.38 C149.33 197.2 150.86 199.22 153 202 C153.99 202.66 154.98 203.32 156 204 C156.33 204.99 156.66 205.98 157 207 C157.76 207.45 158.53 207.91 159.31 208.38 C162.33 210.2 163.86 212.22 166 215 C166.99 215.66 167.98 216.32 169 217 C169.33 217.99 169.66 218.98 170 220 C170.74 220.39 171.49 220.78 172.25 221.19 C175.98 223.65 178.18 226.92 180 231 C179.67 231.66 179.34 232.32 179 233 C178.01 232.67 177.02 232.34 176 232 C176 231.34 176 230.68 176 230 C175.25 229.92 174.5 229.83 173.73 229.75 C170.42 228.84 169.48 227.72 167.38 225.06 C165.28 222.45 163.83 220.89 161 219 C161 218.34 161 217.68 161 217 C160.43 216.77 159.86 216.54 159.28 216.3 C156.41 214.66 154.71 212.64 152.56 210.12 C149.59 206.66 146.59 203.82 143 201 C141.86 199.83 140.75 198.62 139.69 197.38 C139.18 196.78 138.66 196.19 138.14 195.59 C137 194 137 194 137 192 C136.26 191.79 135.51 191.59 134.75 191.38 C131.19 189.6 130.1 187.33 128 184 C126.68 182.98 125.36 181.97 124 181 C124 180.34 124 179.68 124 179 C123.42 178.94 122.85 178.88 122.25 178.81 C119.08 177.67 117.87 175.74 116 173 C116 172.34 116 171.68 116 171 C115.41 170.72 114.82 170.45 114.21 170.16 C108.27 167.03 103.97 161.92 99.68 156.87 C97.89 154.78 97.89 154.78 95 152.5 C91.84 149.87 89.37 147.03 86.72 143.91 C84.38 141.32 81.68 139.23 79 137 C73 130.71 73 130.71 73 128 C72.13 127.91 72.13 127.91 71.25 127.81 C68.08 126.67 67.01 124.67 65 122 C63.64 120.67 63.64 120.67 62.25 119.31 C60 117 60 117 60 115 C59.13 114.91 59.13 114.91 58.25 114.81 C55.08 113.67 53.87 111.74 52 109 C52 108.34 52 107.68 52 107 C51.41 106.72 50.82 106.45 50.21 106.16 C44.27 103.03 39.97 97.92 35.68 92.87 C33.89 90.78 33.89 90.78 31 88.5 C27.84 85.87 25.37 83.03 22.72 79.91 C20.38 77.32 17.68 75.23 15 73 C9 66.71 9 66.71 9 64 C8.13 63.91 8.13 63.91 7.25 63.81 C4.08 62.67 3.01 60.67 1 58 C0.09 57.11 -0.82 56.23 -1.75 55.31 C-4 53 -4 53 -4 51 C-4.6 50.75 -5.21 50.5 -5.83 50.25 C-8.36 48.79 -9.27 47.49 -10.75 45 C-11.39 43.95 -11.39 43.95 -12.05 42.88 C-13 41 -13 41 -13 39 C-13.93 38.75 -14.86 38.5 -15.81 38.25 C-19.23 36.91 -20.45 36.29 -22 33 C-22.19 30.19 -22.19 30.19 -21 27 C-19.07 25.1 -17.03 23.42 -14.92 21.72 C-12.44 19.49 -11.46 16.97 -10 14 C-8.82 12.98 -7.61 12.01 -6.38 11.06 C-3.33 8.65 -3.05 8.25 -2.19 4.19 C-2.13 3.14 -2.06 2.08 -2 1 C-1.34 0.67 -0.68 0.34 0 0 Z " fill="#A9A6A5" transform="translate(999,353)"/>
<path d="M0 0 C0.99 0.33 1.98 0.66 3 1 C1.81 5.9 -1.14 8.03 -4.85 11.11 C-6.99 12.99 -8.79 14.95 -10.62 17.12 C-13.48 20.5 -16.6 23.18 -20 26 C-21.62 27.84 -23.18 29.72 -24.7 31.64 C-25.13 32.09 -25.56 32.54 -26 33 C-26.66 33 -27.32 33 -28 33 C-28.33 33.99 -28.66 34.98 -29 36 C-30.62 37.71 -32.3 39.37 -34 41 C-35.33 42.39 -35.33 42.39 -36.69 43.81 C-39 46 -39 46 -41 46 C-41.33 46.99 -41.66 47.98 -42 49 C-43.62 50.71 -45.3 52.37 -47 54 C-48.11 55.12 -49.21 56.25 -50.31 57.38 C-53.42 60.49 -56.66 63.38 -60.01 66.23 C-64.25 70 -68.05 74.13 -71.81 78.38 C-75.43 82.38 -79.14 85.99 -83.27 89.46 C-85.24 91.14 -85.24 91.14 -87.5 94 C-90.13 97.16 -92.98 99.63 -96.09 102.28 C-98.21 104.11 -98.21 104.11 -100.5 107 C-103.13 110.16 -105.98 112.63 -109.09 115.28 C-111.21 117.11 -111.21 117.11 -113.5 120 C-116.15 123.18 -119.02 125.68 -122.16 128.35 C-124.14 130.03 -124.14 130.03 -126 132.5 C-127.85 134.82 -129.69 136.52 -131.94 138.44 C-134.41 140.55 -136.4 142.48 -138.5 145 C-141.13 148.16 -143.98 150.63 -147.09 153.28 C-149.21 155.11 -149.21 155.11 -151.5 158 C-154.13 161.16 -156.98 163.63 -160.09 166.28 C-162.21 168.11 -162.21 168.11 -164.5 171 C-167.13 174.16 -169.98 176.63 -173.09 179.28 C-175.21 181.11 -175.21 181.11 -177.5 184 C-180.15 187.18 -183.02 189.68 -186.16 192.35 C-188.14 194.03 -188.14 194.03 -190 196.5 C-191.85 198.82 -193.69 200.52 -195.94 202.44 C-199.37 205.36 -202.12 208.53 -205 212 C-206.73 213.54 -208.52 215.01 -210.31 216.48 C-211.96 217.97 -213.23 219.48 -214.56 221.25 C-217.26 224.3 -219.09 225.09 -223 226 C-223.33 225.34 -223.66 224.68 -224 224 C-221.25 219.3 -218.1 216.21 -213.94 212.72 C-211.79 210.9 -211.79 210.9 -209.5 208 C-206.87 204.85 -204.03 202.38 -200.91 199.73 C-199.21 198.19 -197.8 196.67 -196.38 194.88 C-194.28 192.34 -192.16 190.45 -189.61 188.42 C-187.02 186.13 -184.89 183.46 -182.65 180.84 C-180.64 178.6 -178.35 176.88 -176 175 C-174.88 173.74 -173.78 172.47 -172.69 171.19 C-170.28 168.37 -167.83 165.89 -165 163.5 C-161.5 160.54 -158.55 157.32 -155.58 153.84 C-153.51 151.43 -151.27 149.22 -149 147 C-148.38 146.37 -147.76 145.74 -147.12 145.09 C-144.12 142.05 -141.16 139.05 -137.81 136.38 C-134.79 133.83 -132.49 131.06 -130 128 C-128.36 126.31 -126.69 124.65 -125 123 C-124.05 122.04 -124.05 122.04 -123.08 121.05 C-117.52 115.41 -117.52 115.41 -114.44 113 C-112.21 111.17 -110.54 109.37 -108.69 107.19 C-106.28 104.37 -103.83 101.89 -101 99.5 C-98.43 97.32 -96.16 95.12 -94 92.54 C-89.47 87.29 -84.57 82.42 -79.66 77.53 C-78.07 75.94 -76.48 74.35 -74.89 72.76 C-69.92 67.78 -64.93 62.9 -59.53 58.37 C-57.79 56.89 -57.79 56.89 -55.88 54.31 C-54.02 52.02 -52.24 50.89 -49.77 49.36 C-46.46 46.82 -43.9 43.52 -41.16 40.39 C-39.46 38.51 -37.86 36.93 -35.88 35.38 C-32.76 32.8 -30.33 29.98 -27.72 26.91 C-25.38 24.32 -22.68 22.23 -20 20 C-18.98 18.83 -17.98 17.64 -17 16.44 C-15.03 14.05 -13.66 12.78 -11 11.06 C-7.55 8.69 -5.65 6.12 -3.3 2.71 C-2 1 -2 1 0 0 Z " fill="#AAA7A6" transform="translate(1247,665)"/>
<path d="M0 0 C0.99 0.5 0.99 0.5 2 1 C1.5 5.1 0.65 6.8 -2.56 9.38 C-3.29 9.98 -4.02 10.58 -4.77 11.21 C-5.88 12.09 -5.88 12.09 -7 13 C-12.98 17.88 -18.18 23.3 -23.34 29.03 C-25.62 31.53 -27.78 33.83 -30.46 35.93 C-32.59 37.67 -34.1 39.22 -35.85 41.31 C-41.25 47.54 -47.16 53.27 -53 59.08 C-54.31 60.39 -55.62 61.7 -56.93 63.01 C-59.75 65.81 -62.56 68.62 -65.37 71.42 C-69.83 75.85 -74.28 80.29 -78.72 84.73 C-91.37 97.36 -104.02 109.97 -116.68 122.58 C-123.68 129.56 -130.68 136.54 -137.67 143.52 C-142.09 147.93 -146.51 152.34 -150.93 156.74 C-153.69 159.49 -156.44 162.23 -159.19 164.98 C-160.46 166.25 -161.74 167.52 -163.01 168.79 C-171.55 177.17 -171.55 177.17 -178.86 186.61 C-180 188 -180 188 -182.88 189 C-183.58 189 -184.28 189 -185 189 C-185.81 187.31 -185.81 187.31 -186 185 C-184.39 183.14 -182.83 181.62 -181 180 C-177.58 176.69 -174.25 173.34 -171.19 169.69 C-165.26 162.89 -158.75 156.63 -152.36 150.27 C-150.88 148.78 -149.39 147.29 -147.9 145.81 C-144.71 142.62 -141.52 139.43 -138.32 136.25 C-133.27 131.21 -128.22 126.16 -123.17 121.12 C-111.54 109.5 -99.9 97.89 -88.27 86.27 C-77.6 75.62 -66.93 64.97 -56.27 54.32 C-51.25 49.31 -46.23 44.3 -41.21 39.29 C-38.09 36.17 -34.96 33.05 -31.84 29.93 C-30.39 28.49 -28.95 27.05 -27.5 25.61 C-18.14 16.38 -18.14 16.38 -9.44 6.53 C-6.82 3.74 -3.53 1.48 0 0 Z " fill="#A9A6A5" transform="translate(1174,695)"/>
<path d="M0 0 C0.82 -0.01 1.64 -0.01 2.49 -0.02 C4.22 -0.03 5.96 -0.03 7.7 -0.04 C10.34 -0.05 12.98 -0.08 15.62 -0.11 C17.31 -0.12 19 -0.12 20.69 -0.12 C21.47 -0.14 22.25 -0.15 23.06 -0.16 C28.29 -0.14 31.89 0.77 36.54 3.2 C41.1 7.91 40.71 13.43 40.75 19.66 C40.75 20.48 40.76 21.3 40.76 22.15 C40.77 23.88 40.78 25.62 40.78 27.36 C40.79 30 40.82 32.64 40.86 35.28 C40.86 36.97 40.87 38.66 40.87 40.35 C40.88 41.13 40.9 41.91 40.91 42.72 C40.89 47.95 39.97 51.55 37.54 56.2 C32.84 60.76 27.31 60.37 21.09 60.41 C19.85 60.41 19.85 60.41 18.6 60.42 C16.86 60.43 15.13 60.44 13.39 60.44 C10.75 60.45 8.11 60.48 5.47 60.52 C3.78 60.52 2.09 60.53 0.4 60.53 C-0.38 60.54 -1.17 60.56 -1.97 60.57 C-7.2 60.55 -10.81 59.63 -15.46 57.2 C-20.01 52.5 -19.63 46.97 -19.66 40.75 C-19.67 39.51 -19.67 39.51 -19.68 38.26 C-19.69 36.52 -19.69 34.79 -19.7 33.05 C-19.71 30.41 -19.74 27.77 -19.77 25.13 C-19.78 23.44 -19.78 21.75 -19.79 20.06 C-19.8 19.28 -19.81 18.49 -19.82 17.69 C-19.8 12.46 -18.89 8.85 -16.46 4.2 C-11.75 -0.35 -6.23 0.03 0 0 Z M-14.46 4.2 C-15.62 8.03 -15.83 11.92 -16.08 15.89 C-16.13 16.61 -16.17 17.32 -16.22 18.06 C-16.43 21.88 -16.46 25.53 -15.96 29.33 C-15.46 33.2 -15.46 33.2 -15.96 36.14 C-16.74 40.95 -16.67 46.78 -14.46 51.2 C-13.47 51.53 -12.48 51.86 -11.46 52.2 C-10.59 53.25 -10.59 53.25 -9.71 54.33 C-7.5 56.6 -7.5 56.6 -4.02 56.02 C-2.06 55.57 -0.11 55.12 1.84 54.66 C5.03 54.12 8.06 54.07 11.29 54.08 C12.44 54.08 13.59 54.07 14.78 54.07 C17.54 54.2 17.54 54.2 18.54 55.2 C20.99 55.71 23.39 56.14 25.86 56.52 C26.53 56.64 27.21 56.76 27.91 56.89 C31.36 57.41 33.11 57.48 36.09 55.56 C37.96 52.52 37.3 51.6 36.54 48.2 C36.48 46.48 36.46 44.75 36.48 43.03 C36.49 41.55 36.49 41.55 36.51 40.04 C36.52 38.48 36.52 38.48 36.54 36.89 C36.61 27.28 36.33 17.79 35.54 8.2 C34.88 8.2 34.22 8.2 33.54 8.2 C33.05 6.22 33.05 6.22 32.54 4.2 C29.77 4.01 27 3.82 24.23 3.64 C23.44 3.58 22.66 3.53 21.85 3.47 C21.09 3.42 20.33 3.37 19.55 3.32 C18.86 3.28 18.16 3.23 17.44 3.18 C15.32 3.11 15.32 3.11 12.54 4.2 C10.98 4.09 9.41 3.91 7.86 3.7 C0.37 2.91 -6.98 3.59 -14.46 4.2 Z " fill="#080807" transform="translate(117.45703125,609.796875)"/>
<path d="M0 0 C0.84 -0.01 1.68 -0.01 2.54 -0.02 C4.31 -0.03 6.07 -0.03 7.84 -0.03 C10.52 -0.04 13.21 -0.08 15.89 -0.11 C17.61 -0.12 19.34 -0.12 21.06 -0.12 C22.25 -0.15 22.25 -0.15 23.47 -0.17 C29.08 -0.12 33.58 0.97 38.16 4.34 C41.04 8.53 40.47 13.87 40.46 18.8 C40.47 19.71 40.47 20.62 40.48 21.56 C40.48 23.48 40.48 25.41 40.48 27.33 C40.48 30.26 40.5 33.19 40.53 36.12 C40.53 37.99 40.53 39.87 40.53 41.74 C40.54 42.61 40.55 43.48 40.56 44.38 C40.52 49.38 40.24 53.18 37.16 57.34 C31.88 60.46 27.24 60.78 21.2 60.73 C20.36 60.74 19.52 60.74 18.65 60.74 C16.89 60.75 15.12 60.74 13.36 60.73 C10.67 60.71 7.99 60.73 5.3 60.75 C3.58 60.74 1.86 60.74 0.13 60.73 C-0.66 60.74 -1.46 60.75 -2.28 60.75 C-7.51 60.69 -11.25 59.96 -15.84 57.34 C-19.79 53.05 -19.29 47.95 -19.27 42.43 C-19.27 41.48 -19.28 40.52 -19.29 39.54 C-19.29 37.52 -19.29 35.51 -19.28 33.49 C-19.27 30.41 -19.3 27.34 -19.33 24.26 C-19.34 22.3 -19.34 20.33 -19.33 18.37 C-19.34 17.46 -19.35 16.54 -19.37 15.6 C-19.31 10.08 -18.78 6.54 -14.84 2.34 C-10.07 -0.06 -5.23 0.01 0 0 Z M-4.84 3.71 C-6.07 3.8 -7.31 3.89 -8.59 3.98 C-11.84 4.22 -11.84 4.22 -14.84 5.34 C-15 9.88 -15.17 14.42 -15.34 18.96 C-15.38 20.25 -15.43 21.53 -15.48 22.86 C-15.53 24.1 -15.57 25.34 -15.62 26.62 C-15.66 27.77 -15.7 28.91 -15.74 30.08 C-15.81 32.29 -15.82 34.49 -15.79 36.69 C-15.84 39.34 -15.84 39.34 -16.84 40.34 C-16.91 41.69 -16.92 43.04 -16.9 44.4 C-16.88 45.7 -16.86 47 -16.84 48.34 C-16.18 48.34 -15.52 48.34 -14.84 48.34 C-14.73 48.93 -14.63 49.53 -14.52 50.15 C-13.73 52.67 -12.88 53.68 -10.84 55.34 C-6.58 56.75 -2.29 56.06 1.97 54.8 C5.11 54.13 8.14 54.2 11.35 54.21 C12.6 54.21 13.85 54.21 15.14 54.2 C18.16 54.34 18.16 54.34 19.16 55.34 C21.63 55.82 24.06 56.23 26.54 56.59 C27.22 56.7 27.91 56.82 28.62 56.94 C32.55 57.56 32.55 57.56 36.09 56.06 C37.69 53.48 37.98 51.35 38.16 48.34 C37.85 47.56 37.54 46.79 37.21 45.99 C36.08 43.14 35.77 40.77 35.54 37.71 C35.46 36.77 35.39 35.83 35.31 34.86 C35.11 31.45 35.27 28.74 36.16 25.46 C37.53 19.52 37.76 13.4 37.16 7.34 C33.39 3.56 28.65 4 23.6 3.71 C22.82 3.66 22.04 3.61 21.24 3.55 C17.07 3.18 17.07 3.18 13.16 4.34 C6.92 4.53 1.37 3.23 -4.84 3.71 Z " fill="#080807" transform="translate(219.8359375,609.6640625)"/>
<path d="M0 0 C0.82 -0.01 1.64 -0.01 2.49 -0.02 C4.22 -0.03 5.96 -0.03 7.7 -0.04 C10.34 -0.05 12.98 -0.08 15.62 -0.11 C17.31 -0.12 19 -0.12 20.69 -0.12 C21.47 -0.14 22.25 -0.15 23.06 -0.16 C29.05 -0.14 34.13 0.79 38.54 5.2 C39.99 14.14 39.7 23.43 39.67 32.45 C39.67 34.26 39.67 34.26 39.68 36.09 C39.66 54 39.66 54 36.23 57.7 C31.31 60.45 26.63 60.38 21.09 60.41 C19.85 60.41 19.85 60.41 18.6 60.42 C16.86 60.43 15.13 60.44 13.39 60.44 C10.75 60.45 8.11 60.48 5.47 60.52 C3.78 60.52 2.09 60.53 0.4 60.53 C-0.38 60.54 -1.17 60.56 -1.97 60.57 C-7.2 60.55 -10.81 59.64 -15.46 57.2 C-19.87 52.5 -19.63 47.51 -19.66 41.37 C-19.67 40.5 -19.67 39.63 -19.68 38.74 C-19.69 36.9 -19.69 35.06 -19.7 33.22 C-19.71 30.41 -19.74 27.61 -19.77 24.8 C-19.78 23.01 -19.78 21.22 -19.79 19.43 C-19.8 18.6 -19.81 17.76 -19.82 16.9 C-19.8 11.92 -19.19 8.54 -16.46 4.2 C-11.65 -0.3 -6.29 0.03 0 0 Z M-15.46 5.2 C-16.66 8.61 -16.59 11.93 -16.59 15.52 C-16.59 16.76 -16.59 18 -16.59 19.28 C-16.59 20.57 -16.59 21.87 -16.58 23.2 C-16.59 24.47 -16.59 25.73 -16.59 27.04 C-17.26 39.94 -17.26 39.94 -14.46 52.2 C-13.14 52.2 -11.82 52.2 -10.46 52.2 C-9.8 53.52 -9.14 54.84 -8.46 56.2 C-7.04 56.06 -5.62 55.91 -4.21 55.77 C-3.42 55.68 -2.63 55.6 -1.82 55.52 C0.49 55.26 0.49 55.26 2.45 54.68 C5.24 54.05 7.88 54.07 10.73 54.08 C12.33 54.07 12.33 54.07 13.96 54.07 C16.54 54.2 16.54 54.2 17.54 55.2 C20.53 55.49 23.49 55.72 26.48 55.89 C27.32 55.95 28.15 56.01 29.02 56.07 C30.22 56.14 30.22 56.14 31.45 56.21 C32.18 56.26 32.92 56.31 33.68 56.35 C35.79 56.39 35.79 56.39 37.54 54.2 C37.34 51.97 37.34 51.97 36.67 49.58 C36.46 48.76 36.26 47.94 36.05 47.1 C35.8 46.16 35.8 46.16 35.54 45.2 C36.2 44.87 36.86 44.54 37.54 44.2 C37.4 42.9 37.25 41.6 37.11 40.27 C37.02 39.53 36.94 38.8 36.86 38.05 C36.72 36.19 36.72 36.19 35.54 35.2 C35.44 33.6 35.41 32 35.42 30.39 C35.41 29.08 35.41 29.08 35.41 27.75 C35.54 25.2 35.54 25.2 36.11 22.94 C36.26 22.37 36.4 21.79 36.54 21.2 C36.21 20.87 35.88 20.54 35.54 20.2 C35.63 18.18 35.79 16.16 35.98 14.14 C36.08 13.04 36.18 11.93 36.29 10.79 C36.37 9.94 36.46 9.08 36.54 8.2 C29.5 3.83 22.78 3.15 14.54 3.2 C13.55 3.7 13.55 3.7 12.54 4.2 C5.24 4.44 5.24 4.44 1.54 3.2 C-0.6 3.08 -2.75 3.03 -4.89 3.02 C-6.59 2.99 -6.59 2.99 -8.33 2.97 C-11.36 3.2 -13.04 3.39 -15.46 5.2 Z " fill="#0B0A0A" transform="translate(322.45703125,609.796875)"/>
<path d="M0 0 C2.39 2.39 2.26 2.92 2.29 6.17 C2.3 7.03 2.32 7.89 2.33 8.78 C2.33 9.71 2.33 10.65 2.34 11.61 C2.34 12.57 2.35 13.53 2.36 14.52 C2.37 16.55 2.37 18.59 2.37 20.62 C2.37 23.72 2.41 26.83 2.45 29.93 C2.46 31.91 2.46 33.88 2.46 35.86 C2.48 36.78 2.49 37.71 2.5 38.66 C2.47 44.21 1.98 47.78 -2 52 C-7.15 54.7 -12.75 54.26 -18.43 54.2 C-19.42 54.19 -20.41 54.19 -21.43 54.19 C-24.58 54.18 -27.73 54.15 -30.88 54.12 C-33.02 54.11 -35.16 54.11 -37.3 54.1 C-42.53 54.08 -47.77 54.04 -53 54 C-53 52.02 -53 50.04 -53 48 C-48.5 47.81 -44 47.63 -39.49 47.46 C-37.96 47.4 -36.43 47.34 -34.9 47.28 C-32.7 47.18 -30.5 47.1 -28.29 47.02 C-27.61 46.99 -26.92 46.96 -26.22 46.93 C-22.53 46.81 -21.17 46.88 -18 49 C-14.9 49.24 -14.9 49.24 -11.5 49.12 C-10.36 49.11 -9.21 49.09 -8.03 49.07 C-6.53 49.04 -6.53 49.04 -5 49 C-4.01 49 -3.02 49 -2 49 C-0.85 45.55 -1.3 44.5 -2 41 C-2.16 38.1 -2.16 35.21 -2.17 32.3 C-2.17 31.06 -2.17 31.06 -2.18 29.79 C-2.18 28.05 -2.19 26.3 -2.19 24.55 C-2.19 21.88 -2.21 19.2 -2.22 16.53 C-2.23 14.83 -2.23 13.13 -2.23 11.43 C-2.24 10.63 -2.24 9.83 -2.25 9.01 C-2.24 5.14 -2.19 3.29 0 0 Z " fill="#020201" transform="translate(53,616)"/>
<path d="M0 0 C0.82 -0.01 1.64 -0.01 2.49 -0.02 C4.22 -0.03 5.96 -0.03 7.7 -0.04 C10.34 -0.05 12.98 -0.08 15.62 -0.11 C17.31 -0.12 19 -0.12 20.69 -0.12 C21.47 -0.14 22.25 -0.15 23.06 -0.16 C29 -0.14 33.88 0.87 38.5 4.91 C40.02 8.24 39.65 11.29 39.29 14.83 C39.24 15.51 39.19 16.19 39.13 16.89 C38.71 21.87 38.71 21.87 37.54 24.2 C36.88 24.2 36.22 24.2 35.54 24.2 C35.54 18.92 35.54 13.64 35.54 8.2 C34.88 8.2 34.22 8.2 33.54 8.2 C33.05 6.72 33.05 6.72 32.54 5.2 C29.77 5.01 27 4.82 24.23 4.64 C23.44 4.58 22.66 4.53 21.85 4.47 C21.09 4.42 20.33 4.37 19.55 4.32 C18.86 4.28 18.16 4.23 17.44 4.18 C15.32 4.11 15.32 4.11 12.54 5.2 C10.98 5.09 9.41 4.91 7.86 4.7 C0.33 3.9 -6.93 4.62 -14.46 5.2 C-14.79 10.81 -15.12 16.42 -15.46 22.2 C-15.79 22.2 -16.12 22.2 -16.46 22.2 C-16.56 19.26 -16.64 16.33 -16.71 13.39 C-16.74 12.56 -16.77 11.72 -16.81 10.87 C-16.91 4.72 -16.91 4.72 -14.69 2.19 C-9.86 0.06 -5.22 0.03 0 0 Z " fill="#12110F" transform="translate(117.45703125,609.796875)"/>
<path d="M0 0 C4.57 1.4 6.74 3.59 9.81 7.19 C13.42 11.3 17.09 14.94 21.27 18.46 C23.81 20.72 25.83 23.39 28 26 C29.15 27.04 30.32 28.06 31.5 29.06 C41.31 37.46 50.09 46.8 58 57 C57.51 57.99 57.51 57.99 57 59 C53.11 55.83 49.55 52.55 46 49 C44.67 47.85 43.34 46.7 42 45.56 C39.56 43.46 37.38 41.39 35.38 38.88 C33.06 35.89 33.06 35.89 29.94 33.5 C27 31 27 31 25.19 28.12 C23.1 25.14 21.45 23.69 18.56 21.56 C14.94 18.89 12.66 16.38 10.25 12.62 C8.8 10.75 7.3 9.72 5.31 8.44 C2.44 6.56 2.02 6.05 0.56 2.69 C0.38 1.8 0.19 0.91 0 0 Z " fill="#AAA7A6" transform="translate(1125,512)"/>
<path d="M0 0 C0.84 -0.01 1.68 -0.02 2.55 -0.02 C4.33 -0.04 6.11 -0.05 7.88 -0.06 C9.69 -0.07 11.5 -0.09 13.31 -0.12 C15.94 -0.16 18.56 -0.18 21.19 -0.19 C22.39 -0.21 22.39 -0.21 23.61 -0.24 C29.25 -0.22 33.68 1 38.36 4.24 C39.89 7.3 39.46 10.51 39.42 13.86 C39.42 14.57 39.41 15.28 39.41 16 C39.4 17.75 39.38 19.49 39.36 21.24 C38.37 20.91 37.38 20.58 36.36 20.24 C36.36 15.95 36.36 11.66 36.36 7.24 C32.98 5.55 31.8 4.98 28.32 4.79 C27.2 4.72 27.2 4.72 26.06 4.66 C24.91 4.61 24.91 4.61 23.73 4.55 C22.96 4.5 22.18 4.46 21.38 4.41 C17.24 4.07 17.24 4.07 13.36 5.24 C6.06 5.47 6.06 5.47 2.36 4.24 C0.42 4.19 0.42 4.19 -1.65 4.36 C-2.34 4.4 -3.02 4.45 -3.72 4.49 C-4.58 4.55 -5.44 4.61 -6.33 4.68 C-9.07 4.86 -11.81 5.05 -14.64 5.24 C-14.64 11.51 -14.64 17.78 -14.64 24.24 C-14.97 24.24 -15.3 24.24 -15.64 24.24 C-16.25 19.11 -16.75 13.97 -16.95 8.8 C-17.01 7.6 -17.01 7.6 -17.07 6.37 C-16.64 4.24 -16.64 4.24 -14.87 2.52 C-10.17 -0.18 -5.3 0.05 0 0 Z " fill="#121110" transform="translate(219.640625,609.76171875)"/>
<path d="M0 0 C6.28 -0.08 12.56 -0.13 18.84 -0.16 C20.98 -0.18 23.11 -0.2 25.25 -0.23 C28.32 -0.26 31.4 -0.28 34.47 -0.29 C35.42 -0.31 36.37 -0.32 37.35 -0.34 C42.98 -0.34 47.07 0.17 52 3 C52.49 4.49 52.49 4.49 53 6 C50.83 5.49 49 5 47 4 C44.47 3.9 41.97 3.86 39.44 3.88 C38.74 3.87 38.04 3.87 37.32 3.86 C33.87 3.56 33.87 3.56 31 5 C28.61 5.1 26.26 5.14 23.88 5.12 C23.17 5.12 22.46 5.12 21.73 5.12 C14.46 5.06 7.24 4.58 0 4 C0 2.68 0 1.36 0 0 Z " fill="#070606" transform="translate(0,610)"/>
<path d="M0 0 C4.5 0.04 9 0.11 13.51 0.21 C15.04 0.24 16.57 0.26 18.1 0.27 C20.3 0.29 22.51 0.34 24.71 0.39 C25.39 0.39 26.08 0.39 26.78 0.39 C30.01 0.49 31.6 0.61 33.96 2.91 C35 5 35 5 35 7 C23.45 7 11.9 7 0 7 C0 4.69 0 2.38 0 0 Z " fill="#AAA7A6" transform="translate(0,635)"/>
<path d="M0 0 C3.12 -0.06 6.25 -0.09 9.38 -0.12 C10.26 -0.14 11.15 -0.16 12.07 -0.18 C12.92 -0.18 13.77 -0.19 14.65 -0.2 C15.83 -0.21 15.83 -0.21 17.03 -0.23 C19 0 19 0 21 2 C22.44 10.94 22.15 20.22 22.12 29.25 C22.13 31.05 22.13 31.05 22.14 32.89 C22.13 39.35 21.87 45.6 21 52 C20.34 51.67 19.68 51.34 19 51 C18.55 48.97 18.55 48.97 18.31 46.5 C18.23 45.69 18.14 44.87 18.05 44.03 C18.03 43.03 18.03 43.03 18 42 C18.33 41.67 18.66 41.34 19 41 C18.94 39.12 18.94 39.12 18.62 37 C18.53 36.28 18.44 35.56 18.35 34.81 C18.17 32.99 18.17 32.99 17 32 C16.87 30.4 16.82 28.79 16.81 27.19 C16.8 26.31 16.78 25.44 16.77 24.54 C17.01 21.89 17.66 20.28 19 18 C18.34 17.67 17.68 17.34 17 17 C17.33 13.37 17.66 9.74 18 6 C12.1 1.93 7.1 1.26 0 1 C0 0.67 0 0.34 0 0 Z " fill="#0F0E0D" transform="translate(340,613)"/>
<path d="M0 0 C2.92 0.24 3.97 0.97 6.08 3.04 C6.79 3.89 7.51 4.75 8.25 5.62 C11.69 9.59 15.23 13.04 19.23 16.42 C21.78 18.7 23.81 21.38 26 24 C27.36 25.21 28.74 26.39 30.12 27.56 C33.13 30.11 35.26 32.41 37 36 C31.94 36 28.63 32.3 25 29 C23.65 27.28 22.49 25.52 21.31 23.68 C19.27 21.06 16.61 19.43 13.91 17.54 C11.44 15.55 10 13.3 8.29 10.67 C6.81 8.75 5.25 7.6 3.25 6.25 C0 4 0 4 -1 1 C-0.67 0.67 -0.34 0.34 0 0 Z " fill="#AAA7A6" transform="translate(1063,450)"/>
<path d="M0 0 C0.33 0 0.66 0 1 0 C1.07 5.87 1.13 11.74 1.16 17.61 C1.18 19.61 1.2 21.61 1.23 23.6 C1.26 26.48 1.28 29.35 1.29 32.23 C1.31 33.11 1.32 34 1.34 34.92 C1.34 40.06 0.79 43.5 -2 48 C-2.99 47.67 -3.98 47.34 -5 47 C-4.34 47 -3.68 47 -3 47 C-2.79 45.78 -2.59 44.57 -2.38 43.31 C-2.26 42.63 -2.14 41.94 -2.02 41.24 C-1.99 38.43 -2.94 36.58 -4 34 C-4.41 31.21 -4.41 31.21 -4.62 28.38 C-4.7 27.43 -4.77 26.49 -4.85 25.52 C-5.08 21.66 -4.76 18.95 -3.5 15.31 C-3.08 14.1 -3.08 14.1 -2.66 12.86 C-2.44 12.25 -2.22 11.63 -2 11 C-1.67 11 -1.34 11 -1 11 C-0.67 7.37 -0.34 3.74 0 0 Z " fill="#030303" transform="translate(259,619)"/>
<path d="M0 0 C1.23 -0 1.23 -0 2.49 -0.01 C4.22 -0.01 5.94 -0 7.67 0 C10.3 0.02 12.94 0 15.57 -0.01 C17.26 -0.01 18.94 -0 20.62 0 C21.8 -0.01 21.8 -0.01 22.99 -0.01 C27.48 0.03 31.08 0.57 35.31 2.27 C35.31 2.6 35.31 2.93 35.31 3.27 C34.37 3.3 34.37 3.3 33.42 3.34 C30.59 3.46 27.76 3.58 24.94 3.7 C23.46 3.76 23.46 3.76 21.95 3.82 C20.54 3.89 20.54 3.89 19.1 3.95 C17.8 4 17.8 4 16.47 4.06 C14.26 4.14 14.26 4.14 12.31 5.27 C5.01 5.5 5.01 5.5 1.31 4.27 C-1.72 4.24 -4.74 4.33 -7.78 4.43 C-10.68 4.27 -12.24 3.77 -14.69 2.27 C-9.64 0.25 -5.34 -0.03 0 0 Z " fill="#0C0B0A" transform="translate(322.6875,609.734375)"/>
<path d="M0 0 C0.33 0 0.66 0 1 0 C1.05 5.3 1.09 10.6 1.11 15.91 C1.12 17.71 1.13 19.51 1.15 21.31 C1.18 23.91 1.19 26.5 1.2 29.1 C1.21 29.9 1.22 30.7 1.23 31.53 C1.23 36.09 0.74 39.7 -1 44 C-4.01 40.69 -4.36 38.54 -4.25 34.12 C-4.22 32.98 -4.19 31.84 -4.16 30.66 C-4.11 29.45 -4.06 28.24 -4 27 C-3.95 25.76 -3.89 24.52 -3.84 23.25 C-3.5 17.43 -2.95 12.51 -1 7 C-0.62 4.67 -0.28 2.34 0 0 Z " fill="#000000" transform="translate(157,621)"/>
<path d="M0 0 C2 2 2 2 2.24 3.91 C2.24 4.69 2.23 5.47 2.23 6.27 C2.23 7.15 2.23 8.03 2.23 8.94 C2.22 9.89 2.21 10.84 2.2 11.82 C2.19 12.79 2.19 13.77 2.19 14.77 C2.18 17.89 2.15 21.01 2.12 24.12 C2.11 26.24 2.11 28.35 2.1 30.46 C2.08 35.64 2.04 40.82 2 46 C1.67 46 1.34 46 1 46 C0.67 43.36 0.34 40.72 0 38 C-0.33 38 -0.66 38 -1 38 C-2.82 4.23 -2.82 4.23 0 0 Z " fill="#000000" transform="translate(53,616)"/>
<path d="M0 0 C1.48 0.99 1.48 0.99 3 2 C4 7.57 3.88 13.35 4 19 C4.03 20.22 4.05 21.44 4.08 22.69 C4.15 26.07 4.2 29.45 4.23 32.83 C4.24 34.19 4.26 35.56 4.28 36.92 C4.31 38.86 4.32 40.8 4.33 42.74 C4.34 43.88 4.35 45.01 4.36 46.18 C4 49 4 49 2.48 50.89 C1.99 51.26 1.5 51.62 1 52 C1 51.01 1 50.02 1 49 C0.97 47.39 0.94 45.77 0.91 44.16 C0.89 43.18 0.87 42.2 0.85 41.19 C0.83 40.13 0.8 39.08 0.78 37.99 C0.76 36.9 0.74 35.82 0.71 34.71 C0.64 31.24 0.57 27.78 0.5 24.31 C0.45 21.97 0.4 19.62 0.36 17.27 C0.24 11.51 0.12 5.76 0 0 Z " fill="#A19E9D" transform="translate(48,614)"/>
<path d="M0 0 C0.99 0.33 1.98 0.66 3 1 C2.01 1.33 1.02 1.66 0 2 C-0.7 3.31 -1.36 4.65 -2 6 C-4 8.75 -4 8.75 -6 11 C-6.66 11 -7.32 11 -8 11 C-8 11.66 -8 12.32 -8 13 C-9.54 14.48 -9.54 14.48 -11.62 16.19 C-15.09 19.11 -17.98 22.16 -20.77 25.71 C-21.18 26.14 -21.58 26.56 -22 27 C-22.66 27 -23.32 27 -24 27 C-24.33 27.99 -24.66 28.98 -25 30 C-25.66 30 -26.32 30 -27 30 C-27.33 30.99 -27.66 31.98 -28 33 C-32.46 37 -32.46 37 -35 37 C-33.64 33.95 -32.11 31.86 -29.74 29.52 C-29.08 28.86 -28.42 28.2 -27.74 27.52 C-27.03 26.81 -26.32 26.11 -25.59 25.39 C-24.49 24.3 -24.49 24.3 -23.37 23.19 C-21.05 20.87 -18.71 18.56 -16.38 16.25 C-14.79 14.68 -13.21 13.11 -11.63 11.54 C-7.76 7.68 -3.88 3.84 0 0 Z M-37 37 C-36.34 37.33 -35.68 37.66 -35 38 C-35.66 38.66 -36.32 39.32 -37 40 C-37 39.01 -37 38.02 -37 37 Z " fill="#BAB8B7" transform="translate(1039,809)"/>
<path d="M0 0 C0 4.95 0 9.9 0 15 C-1.65 15.33 -3.3 15.66 -5 16 C-7.88 13.94 -7.88 13.94 -10 11 C-10.2 7.74 -9.87 5.99 -7.68 3.51 C-5.04 1.16 -3.6 0 0 0 Z " fill="#AAA7A6" transform="translate(987,887)"/>
<path d="M0 0 C0.99 0.33 1.98 0.66 3 1 C1.02 1.99 1.02 1.99 -1 3 C-0.67 2.01 -0.34 1.02 0 0 Z M-1 3 C-2.56 6.82 -4.96 9.26 -8 12 C-8.66 12 -9.32 12 -10 12 C-10.33 12.99 -10.66 13.98 -11 15 C-11.66 15 -12.32 15 -13 15 C-13.31 15.8 -13.31 15.8 -13.62 16.62 C-15.53 19.92 -18.05 22.59 -21 25 C-21.66 25 -22.32 25 -23 25 C-23.33 25.99 -23.66 26.98 -24 28 C-24.66 28 -25.32 28 -26 28 C-26.04 28.56 -26.08 29.11 -26.12 29.69 C-27.49 33.29 -29.91 34.73 -33 37 C-33.66 37 -34.32 37 -35 37 C-33.69 34.11 -32.29 32.04 -30.05 29.79 C-29.46 29.19 -28.86 28.59 -28.25 27.97 C-27.61 27.34 -26.97 26.7 -26.31 26.05 C-25.65 25.39 -25 24.73 -24.32 24.05 C-22.93 22.66 -21.54 21.27 -20.14 19.88 C-18 17.75 -15.87 15.61 -13.74 13.47 C-12.39 12.12 -11.04 10.77 -9.69 9.42 C-9.05 8.78 -8.41 8.13 -7.75 7.47 C-3.23 3 -3.23 3 -1 3 Z M-37 37 C-36.34 37.33 -35.68 37.66 -35 38 C-35.66 38.66 -36.32 39.32 -37 40 C-37 39.01 -37 38.02 -37 37 Z " fill="#C5C4C3" transform="translate(1103,745)"/>
<path d="M0 0 C0.66 -0.33 1.32 -0.66 2 -1 C2.66 -0.01 3.32 0.98 4 2 C4.54 1.81 5.07 1.63 5.62 1.44 C8.62 0.89 11.04 1.39 14 2 C9.72 6.28 2.24 5.18 -3.5 5.19 C-4.33 5.2 -5.16 5.21 -6.01 5.22 C-10.75 5.24 -14.55 4.83 -19 3 C-19 2.67 -19 2.34 -19 2 C-18.16 1.87 -17.31 1.73 -16.45 1.6 C-15.35 1.42 -14.25 1.24 -13.12 1.06 C-11.49 0.8 -11.49 0.8 -9.82 0.54 C-3.41 -0.68 -3.41 -0.68 0 0 Z " fill="#1C1A19" transform="translate(1001,920)"/>
<path d="M0 0 C0 0.66 0 1.32 0 2 C-11.55 2 -23.1 2 -35 2 C-35 1.01 -35 0.02 -35 -1 C-30.66 -1.19 -26.32 -1.37 -21.98 -1.54 C-20.5 -1.6 -19.02 -1.66 -17.55 -1.72 C-15.42 -1.82 -13.3 -1.9 -11.17 -1.98 C-9.89 -2.03 -8.62 -2.08 -7.3 -2.14 C-4.18 -2.01 -2.59 -1.67 0 0 Z " fill="#393532" transform="translate(35,665)"/>
<path d="M0 0 C2.81 1 2.81 1 4.19 3.56 C4.39 4.37 4.6 5.17 4.81 6 C3.49 7.65 2.17 9.3 0.81 11 C-1.95 10.48 -4.51 9.89 -7.19 9 C-7.52 7.02 -7.85 5.04 -8.19 3 C-5.27 0.85 -3.68 0 0 0 Z " fill="#989594" transform="translate(421.1875,634)"/>
<path d="M0 0 C0.66 0 1.32 0 2 0 C3.12 6.75 3.12 6.75 2 9 C1.34 9 0.68 9 0 9 C-0.33 9.66 -0.66 10.32 -1 11 C-1.65 10.84 -2.31 10.67 -2.98 10.5 C-6.77 9.87 -10.48 9.89 -14.31 9.94 C-15.05 9.94 -15.79 9.95 -16.56 9.95 C-18.37 9.96 -20.19 9.98 -22 10 C-22 9.01 -22 8.02 -22 7 C-19.21 6.07 -17.23 5.81 -14.33 5.68 C-13.44 5.64 -12.55 5.6 -11.63 5.56 C-10.7 5.52 -9.77 5.48 -8.81 5.44 C-7.87 5.39 -6.93 5.35 -5.96 5.31 C-3.64 5.2 -1.32 5.1 1 5 C0.67 3.35 0.34 1.7 0 0 Z " fill="#11100F" transform="translate(1176,604)"/>
<path d="M0 0 C0.66 0.66 1.32 1.32 2 2 C1.01 3.49 1.01 3.49 0 5 C-0.66 5 -1.32 5 -2 5 C-2.33 5.99 -2.66 6.98 -3 8 C-5.06 8.69 -5.06 8.69 -7 9 C-5.44 5.18 -2.96 2.81 0 0 Z M-9 9 C-8.34 9.33 -7.68 9.66 -7 10 C-7.99 10.99 -8.98 11.98 -10 13 C-10 10 -10 10 -9 9 Z M-11 13 C-11.66 14.65 -12.32 16.3 -13 18 C-13.66 18 -14.32 18 -15 18 C-15.33 18.99 -15.66 19.98 -16 21 C-16.66 21 -17.32 21 -18 21 C-18.33 21.99 -18.66 22.98 -19 24 C-19.66 24 -20.32 24 -21 24 C-21.29 24.6 -21.58 25.2 -21.88 25.81 C-23 28 -23 28 -25 31 C-25.99 30.67 -26.98 30.34 -28 30 C-16.19 13 -16.19 13 -11 13 Z " fill="#B5B2B1" transform="translate(998,850)"/>
<path d="M0 0 C3.88 1.75 3.88 1.75 5 4 C5.19 7.5 5.19 7.5 5 11 C4.34 11.66 3.68 12.32 3 13 C0.5 12.81 0.5 12.81 -2 12 C-4 9 -4 9 -3.81 6 C-3 2.99 -2.4 1.88 0 0 Z " fill="#AAA7A6" transform="translate(331,633)"/>
<path d="M0 0 C3.1 -0.12 6.21 -0.19 9.31 -0.25 C10.19 -0.28 11.07 -0.32 11.98 -0.35 C18.38 -0.45 18.38 -0.45 21.12 1.54 C22.35 4.97 22.11 8.07 21.75 11.62 C21.7 12.31 21.64 12.99 21.59 13.69 C21.17 18.67 21.17 18.67 20 21 C19.34 21 18.68 21 18 21 C18 15.72 18 10.44 18 5 C17.34 5 16.68 5 16 5 C15.67 4.01 15.34 3.02 15 2 C10.05 1.67 5.1 1.34 0 1 C0 0.67 0 0.34 0 0 Z " fill="#383431" transform="translate(135,613)"/>
<path d="M0 0 C4.88 4.27 4.88 4.27 5.44 7.69 C5 10 5 10 3 12 C0 11.81 0 11.81 -3 11 C-5 8 -5 8 -4.88 5.5 C-3.83 2.52 -2.65 1.63 0 0 Z " fill="#AAA7A6" transform="translate(229,633)"/>
<path d="M0 0 C2 1.62 2 1.62 4 4 C4.31 7.15 4.42 9.16 3 12 C-2.54 11.38 -2.54 11.38 -4.88 9.44 C-5.25 8.96 -5.62 8.49 -6 8 C-4.73 4.09 -3.49 2.21 0 0 Z " fill="#AAA7A6" transform="translate(127,633)"/>
<path d="M0 0 C3.12 -0.06 6.25 -0.09 9.38 -0.12 C10.26 -0.14 11.15 -0.16 12.07 -0.18 C12.92 -0.18 13.77 -0.19 14.65 -0.2 C15.83 -0.21 15.83 -0.21 17.03 -0.23 C19 0 19 0 21 2 C21.15 4.74 21.19 7.38 21.12 10.12 C21.12 10.88 21.11 11.63 21.1 12.41 C21.07 14.27 21.04 16.14 21 18 C19.68 17.67 18.36 17.34 17 17 C17.33 13.37 17.66 9.74 18 6 C12.1 1.93 7.1 1.26 0 1 C0 0.67 0 0.34 0 0 Z " fill="#35312E" transform="translate(340,613)"/>
<path d="M0 0 C2.08 -0.08 4.17 -0.14 6.25 -0.19 C7.99 -0.24 7.99 -0.24 9.77 -0.29 C13.25 0.02 14.61 0.48 17 3 C17.67 7.42 17.3 9.48 15.06 13.38 C13 16 13 16 12 17 C10.33 17.04 8.67 17.04 7 17 C7.42 16.56 7.84 16.13 8.28 15.68 C11.76 11.89 13.74 9.35 14 4 C11.3 2.65 8.88 2.66 5.88 2.44 C4.23 2.31 4.23 2.31 2.55 2.18 C1.71 2.12 0.87 2.06 0 2 C0 1.34 0 0.68 0 0 Z " fill="#999695" transform="translate(1164,662)"/>
<path d="M0 0 C10.23 0 20.46 0 31 0 C31 0.99 31 1.98 31 3 C20.61 3.12 10.36 2.83 0 2 C0 1.34 0 0.68 0 0 Z " fill="#3B3733" transform="translate(0,612)"/>
<path d="M0 0 C3.12 -0.09 6.25 -0.14 9.38 -0.19 C10.71 -0.23 10.71 -0.23 12.07 -0.26 C13.35 -0.28 13.35 -0.28 14.65 -0.29 C15.83 -0.32 15.83 -0.32 17.03 -0.34 C17.68 -0.23 18.33 -0.12 19 0 C21.45 3.68 21.23 6.44 21.12 10.69 C21.12 11.39 21.11 12.09 21.1 12.81 C21.07 14.54 21.04 16.27 21 18 C20.01 17.67 19.02 17.34 18 17 C18 12.71 18 8.42 18 4 C13.82 1.91 11.35 1.63 6.75 1.38 C4.86 1.26 4.86 1.26 2.92 1.15 C1.48 1.07 1.48 1.07 0 1 C0 0.67 0 0.34 0 0 Z " fill="#2F2C28" transform="translate(238,613)"/>
<path d="M0 0 C2.02 0.07 4.04 0.13 6.05 0.2 C6.68 2.57 6.68 2.57 7.05 5.2 C5.05 7.2 5.05 7.2 3.11 7.39 C1.09 7.33 -0.93 7.26 -2.95 7.2 C-3.57 4.82 -3.57 4.82 -3.95 2.2 C-1.95 0.2 -1.95 0.2 0 0 Z " fill="#AAA7A6" transform="translate(1010.9453125,893.8046875)"/>
<path d="M0 0 C0 0.66 0 1.32 0 2 C-0.66 2 -1.32 2 -2 2 C-2 2.66 -2 3.32 -2 4 C-7.48 9 -7.48 9 -10 9 C-8.13 4.42 -5.21 0 0 0 Z M-12 9 C-11.34 9.33 -10.68 9.66 -10 10 C-10.95 11.34 -11.91 12.67 -12.88 14 C-13.41 14.74 -13.94 15.49 -14.49 16.25 C-14.99 16.83 -15.49 17.4 -16 18 C-16.66 18 -17.32 18 -18 18 C-18.33 18.99 -18.66 19.98 -19 21 C-19.99 21.33 -20.98 21.66 -22 22 C-22 19 -22 19 -19.81 16.52 C-18.88 15.63 -17.96 14.73 -17 13.81 C-16.07 12.91 -15.14 12.01 -14.19 11.08 C-13.1 10.05 -13.1 10.05 -12 9 Z " fill="#BAB7B6" transform="translate(1065,786)"/>
<path d="M0 0 C10.23 0.33 20.46 0.66 31 1 C31 1.66 31 2.32 31 3 C20.77 3 10.54 3 0 3 C0 2.01 0 1.02 0 0 Z " fill="#AAA7A6" transform="translate(0,661)"/>
<path d="M0 0 C1.73 0.12 1.73 0.12 3.5 0.24 C6.56 0.69 6.56 0.69 9.56 2.69 C9.23 4.67 8.9 6.65 8.56 8.69 C8.23 8.69 7.9 8.69 7.56 8.69 C7.56 7.04 7.56 5.39 7.56 3.69 C1.95 3.69 -3.66 3.69 -9.44 3.69 C-9.11 2.7 -8.78 1.71 -8.44 0.69 C-5.54 -0.76 -3.21 -0.24 0 0 Z " fill="#322E2B" transform="translate(1169.4375,663.3125)"/>
<path d="M0 0 C5.61 0 11.22 0 17 0 C17.33 0.99 17.66 1.98 18 3 C14.97 4.52 11.82 4.14 8.5 4.12 C7.81 4.13 7.12 4.13 6.41 4.14 C1.25 4.13 1.25 4.13 -1 3 C-0.67 2.01 -0.34 1.02 0 0 Z " fill="#484441" transform="translate(221,663)"/>
<path d="M0 0 C1.56 1.06 1.56 1.06 3 3 C2.81 6.62 2.81 6.62 2 10 C-1 11.5 -3.79 11.09 -7.12 11.06 C-8.41 11.05 -9.69 11.04 -11.01 11.04 C-12.49 11.02 -12.49 11.02 -14 11 C-14.33 10.01 -14.66 9.02 -15 8 C-11.65 7.93 -8.54 7.89 -5.25 8.56 C-2.85 9.22 -2.85 9.22 0 8 C0 5.36 0 2.72 0 0 Z " fill="#AAA7A6" transform="translate(1178,605)"/>
<path d="M0 0 C5.61 0 11.22 0 17 0 C17.33 0.99 17.66 1.98 18 3 C15.04 4.48 12.35 4.13 9.06 4.12 C7.82 4.13 6.57 4.13 5.29 4.13 C2 4 2 4 -1 3 C-0.67 2.01 -0.34 1.02 0 0 Z " fill="#4C4945" transform="translate(118,663)"/>
<path d="M0 0 C0.99 0.33 1.98 0.66 3 1 C1.88 2.17 0.75 3.34 -0.38 4.5 C-1 5.15 -1.63 5.8 -2.27 6.47 C-4 8 -4 8 -6 8 C-4.56 4.63 -2.67 2.49 0 0 Z M-8 8 C-7.34 8.33 -6.68 8.66 -6 9 C-6.99 9.99 -7.98 10.98 -9 12 C-9 9 -9 9 -8 8 Z M-10 12 C-11.58 16.27 -14.51 18.27 -18 21 C-18 18 -18 18 -16.76 16.39 C-15.95 15.61 -15.95 15.61 -15.12 14.81 C-14.59 14.28 -14.06 13.75 -13.51 13.21 C-12 12 -12 12 -10 12 Z " fill="#C2C0C0" transform="translate(1125,723)"/>
<path d="M0 0 C0.33 0.66 0.66 1.32 1 2 C1.66 1.98 2.33 1.95 3.01 1.93 C11.78 1.75 11.78 1.75 16 4 C16 4.33 16 4.66 16 5 C13.38 5.19 10.75 5.38 8.12 5.56 C7.01 5.65 7.01 5.65 5.86 5.73 C0.23 6.11 0.23 6.11 -2 5 C-1.12 1.12 -1.12 1.12 0 0 Z " fill="#282623" transform="translate(999,353)"/>
<path d="M0 0 C0.99 0.33 1.98 0.66 3 1 C1.62 2.5 1.62 2.5 0 4 C-0.66 4 -1.32 4 -2 4 C-2.33 4.99 -2.66 5.98 -3 7 C-3.66 7 -4.32 7 -5 7 C-5.04 7.56 -5.08 8.11 -5.12 8.69 C-6.49 12.29 -8.91 13.73 -12 16 C-12.66 16 -13.32 16 -14 16 C-12.34 11.67 -9.13 8.91 -5.88 5.75 C-5.31 5.2 -4.75 4.64 -4.17 4.07 C-2.78 2.71 -1.39 1.35 0 0 Z M-16 16 C-15.34 16.33 -14.68 16.66 -14 17 C-14.66 17.66 -15.32 18.32 -16 19 C-16 18.01 -16 17.02 -16 16 Z " fill="#BDBBBA" transform="translate(1082,766)"/>
<path d="M0 0 C4.95 0 9.9 0 15 0 C15.33 0.99 15.66 1.98 16 3 C13.15 4.43 10.68 4.13 7.5 4.12 C5.75 4.13 5.75 4.13 3.97 4.13 C1 4 1 4 -1 3 C-0.67 2.01 -0.34 1.02 0 0 Z " fill="#4A4643" transform="translate(324,663)"/>
<path d="M0 0 C0.99 0.33 1.98 0.66 3 1 C1.62 2.5 1.62 2.5 0 4 C-0.66 4 -1.32 4 -2 4 C-2.33 4.99 -2.66 5.98 -3 7 C-3.66 7 -4.32 7 -5 7 C-5.27 7.6 -5.54 8.2 -5.81 8.81 C-7 11 -8.1 12.41 -10 14 C-10.66 14 -11.32 14 -12 14 C-10.41 10.1 -7.87 7.66 -4.88 4.75 C-3.96 3.86 -3.05 2.97 -2.12 2.05 C-1.42 1.37 -0.72 0.7 0 0 Z M-14 14 C-13.34 14 -12.68 14 -12 14 C-12 14.66 -12 15.32 -12 16 C-12.66 16 -13.32 16 -14 16 C-14 15.34 -14 14.68 -14 14 Z M-16 16 C-15.34 16.33 -14.68 16.66 -14 17 C-14.66 17.66 -15.32 18.32 -16 19 C-16 18.01 -16 17.02 -16 16 Z " fill="#C2C0BF" transform="translate(1146,702)"/>
<path d="M0 0 C0.33 0 0.66 0 1 0 C1 5.94 1 11.88 1 18 C0.01 17.67 -0.98 17.34 -2 17 C-2.05 14.73 -2.09 12.46 -2.12 10.19 C-2.15 8.92 -2.17 7.66 -2.2 6.36 C-2 3 -2 3 0 0 Z " fill="#322E2B" transform="translate(53,616)"/>
<path d="M0 0 C4.93 1.23 7.22 2.72 10 7 C10 7.66 10 8.32 10 9 C8.68 9.33 7.36 9.66 6 10 C0.43 3.71 0.43 3.71 0 0 Z " fill="#AAA7A6" transform="translate(1179,586)"/>
<path d="M0 0 C3.84 0.39 5.36 2.17 7.75 5.06 C8.36 5.8 8.98 6.53 9.61 7.29 C10.07 7.85 10.53 8.42 11 9 C10.34 9.66 9.68 10.32 9 11 C7.51 9.9 6.04 8.8 4.56 7.69 C3.74 7.07 2.92 6.46 2.07 5.82 C0 4 0 4 -1 1 C-0.67 0.67 -0.34 0.34 0 0 Z " fill="#AAA7A6" transform="translate(1114,501)"/>
<path d="M0 0 C3.84 0.39 5.36 2.17 7.75 5.06 C8.36 5.8 8.98 6.53 9.61 7.29 C10.07 7.85 10.53 8.42 11 9 C10.34 9.66 9.68 10.32 9 11 C7.51 9.9 6.04 8.8 4.56 7.69 C3.74 7.07 2.92 6.46 2.07 5.82 C0 4 0 4 -1 1 C-0.67 0.67 -0.34 0.34 0 0 Z " fill="#AAA7A6" transform="translate(1101,488)"/>
<path d="M0 0 C2.16 1.73 2.94 2.59 3.36 5.38 C3.35 6.24 3.33 7.11 3.31 8 C3.31 8.87 3.3 9.73 3.3 10.62 C3 13 3 13 1 16 C0.34 16 -0.32 16 -1 16 C-1.03 13.52 -1.05 11.04 -1.06 8.56 C-1.08 7.5 -1.08 7.5 -1.09 6.42 C-1.1 4.61 -1.05 2.81 -1 1 C-0.67 0.67 -0.34 0.34 0 0 Z " fill="#ADAAA9" transform="translate(307,632)"/>
<path d="M0 0 C4.95 0 9.9 0 15 0 C15 0.99 15 1.98 15 3 C10.05 3 5.1 3 0 3 C0 2.01 0 1.02 0 0 Z " fill="#AAA7A6" transform="translate(0,614)"/>
<path d="M0 0 C0.66 0 1.32 0 2 0 C2.33 6.93 2.66 13.86 3 21 C2.34 21 1.68 21 1 21 C-0.26 18.48 -0.33 16.37 -0.56 13.56 C-0.65 12.59 -0.73 11.63 -0.82 10.63 C-1.08 6.86 -0.8 3.68 0 0 Z " fill="#2F2D2B" transform="translate(255,634)"/>
<path d="M0 0 C1.5 1 1.5 1 3 3 C3.64 7.44 3.52 10.22 1 14 C0.34 14 -0.32 14 -1 14 C-1.03 11.85 -1.05 9.71 -1.06 7.56 C-1.07 6.37 -1.09 5.17 -1.1 3.94 C-1 1 -1 1 0 0 Z " fill="#ABA9A8" transform="translate(205,633)"/>
<path d="M0 0 C0.66 0 1.32 0 2 0 C2 4.62 2 9.24 2 14 C1.01 13.67 0.02 13.34 -1 13 C-1.03 11.02 -1.05 9.04 -1.06 7.06 C-1.07 5.96 -1.09 4.86 -1.1 3.72 C-1 1 -1 1 0 0 Z " fill="#A4A1A0" transform="translate(152,634)"/>
<path d="M0 0 C2 1 2 1 3 3 C3.04 5.33 3.04 7.67 3 10 C1.68 10 0.36 10 -1 10 C-1.6 7.24 -2 4.84 -2 2 C-1.34 1.34 -0.68 0.68 0 0 Z " fill="#484541" transform="translate(981,377)"/>
<path d="M0 0 C2 1 2 1 3.12 3.19 C4.29 6.94 4.8 10.4 3 14 C2.01 14 1.02 14 0 14 C0.02 12.78 0.04 11.57 0.06 10.31 C0.07 7.07 -0.33 4.18 -1 1 C-0.67 0.67 -0.34 0.34 0 0 Z " fill="#ACA9A8" transform="translate(102,631)"/>
<path d="M0 0 C2 1 2 1 3 3 C3.04 5.33 3.04 7.67 3 10 C0.56 9.31 0.56 9.31 -2 8 C-3 5.56 -3 5.56 -3 3 C-1.56 1.19 -1.56 1.19 0 0 Z " fill="#494542" transform="translate(981,889)"/>
<path d="M0 0 C0.66 0.33 1.32 0.66 2 1 C0 5 -2 9 -4 13 C-4.99 12.67 -5.98 12.34 -7 12 C-6.21 10.37 -5.42 8.75 -4.62 7.12 C-4.18 6.22 -3.74 5.32 -3.29 4.38 C-2 2 -2 2 0 0 Z " fill="#BEBCBB" transform="translate(412,615)"/>
<path d="M0 0 C2.34 0.17 3.69 0.7 5.38 2.33 C9 6.57 9 6.57 9 9 C4.57 7.61 2.13 5.39 -1 2 C-0.67 1.34 -0.34 0.68 0 0 Z " fill="#AAA7A6" transform="translate(1051,438)"/>
<path d="M0 0 C-0.33 0.99 -0.66 1.98 -1 3 C-1.66 3 -2.32 3 -3 3 C-3.33 3.99 -3.66 4.98 -4 6 C-8.46 10 -8.46 10 -11 10 C-9.16 5.21 -5.33 0 0 0 Z M-13 10 C-12.34 10.33 -11.68 10.66 -11 11 C-11.66 11.66 -12.32 12.32 -13 13 C-13 12.01 -13 11.02 -13 10 Z " fill="#BAB7B7" transform="translate(1015,836)"/>
<path d="M0 0 C2.97 0 5.94 0 9 0 C9.66 1.32 10.32 2.64 11 4 C7.04 4 3.08 4 -1 4 C-0.67 2.68 -0.34 1.36 0 0 Z " fill="#34302D" transform="translate(427,663)"/>
<path d="M0 0 C0.99 0.33 1.98 0.66 3 1 C3.22 3.46 3.43 5.92 3.62 8.38 C3.69 9.07 3.75 9.77 3.82 10.49 C3.96 12.32 3.99 14.16 4 16 C3.34 16.66 2.68 17.32 2 18 C0.18 14.37 0.99 10.06 1.06 6.07 C1.15 2.96 1.15 2.96 0 0 Z " fill="#A29F9E" transform="translate(253,616)"/>
<path d="M0 0 C3.31 3.14 5.68 6.1 8 10 C8.99 10.66 9.98 11.32 11 12 C11 12.66 11 13.32 11 14 C8.71 13.84 8.71 13.84 6 13 C4.2 10.57 4.2 10.57 2.69 7.56 C2.18 6.57 1.66 5.59 1.14 4.57 C0 2 0 2 0 0 Z " fill="#302D2A" transform="translate(405,653)"/>
<path d="M0 0 C3.18 0.34 4.02 1.02 6.25 3.44 C8 6 8 6 8 8 C4.06 6.69 1.77 5.08 -1 2 C-0.67 1.34 -0.34 0.68 0 0 Z " fill="#AAA7A6" transform="translate(1038,425)"/>
<path d="M0 0 C0.66 0.33 1.32 0.66 2 1 C1.12 5.88 1.12 5.88 0 7 C-1.67 7.04 -3.33 7.04 -5 7 C-5 6.01 -5 5.02 -5 4 C-2.5 1.81 -2.5 1.81 0 0 Z " fill="#AAA7A6" transform="translate(1187,683)"/>
<path d="M0 0 C3.3 0 6.6 0 10 0 C10.33 0.99 10.66 1.98 11 3 C7.04 3 3.08 3 -1 3 C-0.67 2.01 -0.34 1.02 0 0 Z " fill="#34302D" transform="translate(1143,664)"/>
<path d="M0 0 C0.66 0 1.32 0 2 0 C2 3.96 2 7.92 2 12 C1.01 11.67 0.02 11.34 -1 11 C-1.03 9.35 -1.05 7.71 -1.06 6.06 C-1.07 5.15 -1.09 4.23 -1.1 3.29 C-1 1 -1 1 0 0 Z " fill="#34302D" transform="translate(358,634)"/>
<path d="M0 0 C3.36 1.39 5.07 2.92 7 6 C7 6.66 7 7.32 7 8 C3.64 7.4 1.62 6.15 -1 4 C-0.67 2.68 -0.34 1.36 0 0 Z " fill="#AAA7A6" transform="translate(1026,412)"/>
<path d="M0 0 C0.66 0 1.32 0 2 0 C2.33 4.62 2.66 9.24 3 14 C2.01 13.67 1.02 13.34 0 13 C0 8.71 0 4.42 0 0 Z " fill="#302D29" transform="translate(153,648)"/>
<path d="M0 0 C0.33 0 0.66 0 1 0 C1.33 3.96 1.66 7.92 2 12 C3.32 12.33 4.64 12.66 6 13 C6 13.66 6 14.32 6 15 C5.01 15 4.02 15 3 15 C3.33 15.66 3.66 16.32 4 17 C3.01 16.67 2.02 16.34 1 16 C-0.5 13 -0.09 10.21 -0.06 6.88 C-0.05 5.59 -0.04 4.31 -0.04 2.99 C-0.02 2 -0.01 1.02 0 0 Z " fill="#4C4844" transform="translate(101,649)"/>
<path d="M0 0 C5.94 0 11.88 0 18 0 C18 1.65 18 3.3 18 5 C17.4 4.69 16.8 4.38 16.19 4.06 C12.53 2.28 9.33 1.77 5.31 1.44 C4.32 1.35 3.32 1.27 2.3 1.18 C1.16 1.09 1.16 1.09 0 1 C0 0.67 0 0.34 0 0 Z " fill="#615D5A" transform="translate(340,613)"/>
<path d="M0 0 C-0.99 1.49 -0.99 1.49 -2 3 C-2.72 2.81 -3.44 2.63 -4.19 2.44 C-7.13 1.98 -9.14 2.26 -12 3 C-11 0 -11 0 -9.38 -1.31 C-5.87 -2.33 -3.37 -1.17 0 0 Z " fill="#9F9C9A" transform="translate(1003,918)"/>
<path d="M0 0 C-1.66 3.92 -4.11 6.9 -7 10 C-9.31 10.88 -9.31 10.88 -11 11 C-9.6 7.84 -7.95 5.68 -5.5 3.25 C-4.89 2.64 -4.28 2.02 -3.66 1.39 C-2 0 -2 0 0 0 Z " fill="#C8C6C6" transform="translate(1024,826)"/>
<path d="M0 0 C0.66 0.33 1.32 0.66 2 1 C1.05 2.17 0.09 3.34 -0.88 4.5 C-1.41 5.15 -1.94 5.8 -2.49 6.47 C-2.99 6.97 -3.49 7.48 -4 8 C-4.66 8 -5.32 8 -6 8 C-6.33 8.66 -6.66 9.32 -7 10 C-7 6 -7 6 -5.47 4.3 C-4.82 3.79 -4.17 3.28 -3.5 2.75 C-2.85 2.23 -2.2 1.71 -1.53 1.17 C-0.77 0.59 -0.77 0.59 0 0 Z " fill="#C5C3C2" transform="translate(980,357)"/>
<path d="M0 0 C0.05 1.77 0.09 3.54 0.12 5.31 C0.15 6.3 0.17 7.28 0.2 8.3 C0 11 0 11 -2 14 C-2.99 13.67 -3.98 13.34 -5 13 C-4.48 12.63 -3.97 12.26 -3.44 11.88 C-1.65 9.99 -1.65 9.99 -2.31 7 C-2.54 6.01 -2.77 5.02 -3 4 C-3 3.01 -3 2.02 -3 1 C-1 0 -1 0 0 0 Z " fill="#2F2C28" transform="translate(54,653)"/>
<path d="M0 0 C0.66 0 1.32 0 2 0 C2 4.29 2 8.58 2 13 C1.67 11.68 1.34 10.36 1 9 C0.34 9 -0.32 9 -1 9 C-1.1 2.85 -1.1 2.85 -1 1 C-0.67 0.67 -0.34 0.34 0 0 Z " fill="#AFACAB" transform="translate(204,649)"/>
<path d="M0 0 C3.63 0.33 7.26 0.66 11 1 C11 1.99 11 2.98 11 4 C3.57 4.29 3.57 4.29 0 2 C0 1.34 0 0.68 0 0 Z " fill="#AAA7A6" transform="translate(119,613)"/>
<path d="M0 0 C0.33 0 0.66 0 1 0 C1.33 4.62 1.66 9.24 2 14 C3.32 14 4.64 14 6 14 C6 14.66 6 15.32 6 16 C5.01 16 4.02 16 3 16 C3.33 16.66 3.66 17.32 4 18 C3.01 17.67 2.02 17.34 1 17 C-0.53 13.93 -0.1 10.73 -0.06 7.38 C-0.06 6.67 -0.05 5.96 -0.05 5.23 C-0.04 3.49 -0.02 1.74 0 0 Z " fill="#4A4642" transform="translate(306,648)"/>
<path d="M0 0 C3.3 0.33 6.6 0.66 10 1 C10 1.99 10 2.98 10 4 C2.57 4.29 2.57 4.29 -1 2 C-0.67 1.34 -0.34 0.68 0 0 Z " fill="#AAA7A6" transform="translate(425,613)"/>
<path d="M0 0 C0.99 0.33 1.98 0.66 3 1 C2.34 1 1.68 1 1 1 C0.67 1.99 0.34 2.98 0 4 C-0.66 4 -1.32 4 -2 4 C-2.43 4.93 -2.43 4.93 -2.88 5.88 C-4 8 -4 8 -6 10 C-6.99 9.67 -7.98 9.34 -9 9 C-6.03 6.03 -3.06 3.06 0 0 Z " fill="#C3C2C1" transform="translate(1092,756)"/>
<path d="M0 0 C2 2 2 2 2.12 4.09 C2 5.28 2 5.28 1.88 6.5 C1.81 7.29 1.75 8.09 1.68 8.91 C1 11 1 11 -1.05 12.28 C-1.7 12.52 -2.34 12.76 -3 13 C-2.67 12.3 -2.34 11.6 -2 10.88 C-0.91 7.73 -0.93 5.3 -1 2 C-0.67 1.34 -0.34 0.68 0 0 Z " fill="#979594" transform="translate(255,653)"/>
<path d="M0 0 C0.66 0.66 1.32 1.32 2 2 C1.01 3.49 1.01 3.49 0 5 C-0.66 5 -1.32 5 -2 5 C-2.33 5.99 -2.66 6.98 -3 8 C-3.99 8.33 -4.98 8.66 -6 9 C-6 6 -6 6 -4.69 4.39 C-4.13 3.87 -3.57 3.35 -3 2.81 C-2.44 2.28 -1.89 1.75 -1.31 1.21 C-0.66 0.61 -0.66 0.61 0 0 Z " fill="#B2B0AF" transform="translate(998,850)"/>
<path d="M0 0 C0.99 0.33 1.98 0.66 3 1 C1.71 2.38 0.37 3.71 -1 5 C-1.66 5 -2.32 5 -3 5 C-3.33 5.99 -3.66 6.98 -4 8 C-4.99 8.33 -5.98 8.66 -7 9 C-5.44 5.18 -2.96 2.81 0 0 Z M-9 9 C-8.34 9 -7.68 9 -7 9 C-7.33 9.66 -7.66 10.32 -8 11 C-8.33 10.34 -8.66 9.68 -9 9 Z " fill="#C1C0BF" transform="translate(1160,688)"/>
<path d="M0 0 C0.99 0.99 1.98 1.98 3 3 C-0.63 3 -4.26 3 -8 3 C-8 2.34 -8 1.68 -8 1 C-5.2 -0.4 -3.1 -0.25 0 0 Z " fill="#AAA7A6" transform="translate(130,661)"/>
<path d="M0 0 C0.66 0.33 1.32 0.66 2 1 C2 3.97 2 6.94 2 10 C1.01 9.67 0.02 9.34 -1 9 C-1.1 2.85 -1.1 2.85 -1 1 C-0.67 0.67 -0.34 0.34 0 0 Z " fill="#A5A2A1" transform="translate(357,645)"/>
<path d="M0 0 C2.38 1.19 2.38 1.19 3.38 3.19 C0.4 3.19 -2.57 3.19 -5.62 3.19 C-5.62 2.2 -5.62 1.21 -5.62 0.19 C-2.62 -0.81 -2.62 -0.81 0 0 Z " fill="#3B3733" transform="translate(1159.625,610.8125)"/>
<path d="M0 0 C0.66 0.33 1.32 0.66 2 1 C1.01 1.99 0.02 2.98 -1 4 C-1 1 -1 1 0 0 Z M-4 4 C-3.34 4 -2.68 4 -2 4 C-2.75 6.44 -2.75 6.44 -4 9 C-6.12 9.81 -6.12 9.81 -8 10 C-6.85 7.53 -5.95 5.95 -4 4 Z " fill="#C5C4C3" transform="translate(989,859)"/>
<path d="M0 0 C0.66 0.33 1.32 0.66 2 1 C2 1.66 2 2.32 2 3 C-1.3 3 -4.6 3 -8 3 C-8 2.34 -8 1.68 -8 1 C-5.26 -0.37 -3.03 -0.13 0 0 Z " fill="#AAA7A6" transform="translate(232,661)"/>
<path d="M0 0 C0.99 0.33 1.98 0.66 3 1 C3 1.66 3 2.32 3 3 C3.99 3 4.98 3 6 3 C6.33 3.99 6.66 4.98 7 6 C7.99 6.33 8.98 6.66 10 7 C9.67 7.99 9.34 8.98 9 10 C4.12 7.25 4.12 7.25 3 5 C2.48 4.32 1.97 3.64 1.44 2.94 C0 1 0 1 0 0 Z " fill="#9D9A98" transform="translate(983,412)"/>
<path d="M0 0 C2 1 2 1 2 1 Z " fill="#3B3733" transform="translate(1278,664)"/>
<path d="M0 0 C2 1 2 1 2 1 Z " fill="#3B3733" transform="translate(1278,613)"/>
<path d="" fill="#AAA7A6" transform="translate(0,0)"/>
<path d="" fill="#3B3733" transform="translate(0,0)"/>
<path d="" fill="#3B3733" transform="translate(0,0)"/>
<path d="" fill="#3B3733" transform="translate(0,0)"/>
<path d="" fill="#3B3733" transform="translate(0,0)"/>
<path d="" fill="#3B3733" transform="translate(0,0)"/>
<path d="" fill="#F9F9F9" transform="translate(0,0)"/>
<path d="" fill="#3B3733" transform="translate(0,0)"/>
<path d="" fill="#3B3733" transform="translate(0,0)"/>
<path d="" fill="#3B3733" transform="translate(0,0)"/>
<path d="" fill="#3B3733" transform="translate(0,0)"/>
<path d="" fill="#3B3733" transform="translate(0,0)"/>
<path d="" fill="#3B3733" transform="translate(0,0)"/>
<path d="" fill="#3B3733" transform="translate(0,0)"/>
<path d="" fill="#3B3733" transform="translate(0,0)"/>
<path d="" fill="#3B3733" transform="translate(0,0)"/>
<path d="" fill="#3B3733" transform="translate(0,0)"/>
<path d="" fill="#3B3733" transform="translate(0,0)"/>
<path d="" fill="#3B3733" transform="translate(0,0)"/>
<path d="" fill="#3B3733" transform="translate(0,0)"/>
<path d="" fill="#3B3733" transform="translate(0,0)"/>
<path d="" fill="#3B3733" transform="translate(0,0)"/>
<path d="" fill="#3B3733" transform="translate(0,0)"/>
<path d="" fill="#3B3733" transform="translate(0,0)"/>
<path d="" fill="#3B3733" transform="translate(0,0)"/>
<path d="" fill="#3B3733" transform="translate(0,0)"/>
<path d="" fill="#3B3733" transform="translate(0,0)"/>
<path d="" fill="#3B3733" transform="translate(0,0)"/>
<path d="" fill="#3B3733" transform="translate(0,0)"/>
<path d="" fill="#3B3733" transform="translate(0,0)"/>
<path d="" fill="#3B3733" transform="translate(0,0)"/>
<path d="" fill="#3B3733" transform="translate(0,0)"/>
<path d="" fill="#3B3733" transform="translate(0,0)"/>
<path d="" fill="#3B3733" transform="translate(0,0)"/>
<path d="" fill="#F9F9F9" transform="translate(0,0)"/>
<path d="" fill="#AAA7A6" transform="translate(0,0)"/>
<path d="" fill="#AAA7A6" transform="translate(0,0)"/>
<path d="" fill="#3B3733" transform="translate(0,0)"/>
<path d="" fill="#AAA7A6" transform="translate(0,0)"/>
<path d="" fill="#3B3733" transform="translate(0,0)"/>
<path d="" fill="#AAA7A6" transform="translate(0,0)"/>
<path d="" fill="#3B3733" transform="translate(0,0)"/>
<path d="" fill="#AAA7A6" transform="translate(0,0)"/>
<path d="" fill="#3B3733" transform="translate(0,0)"/>
<path d="" fill="#AAA7A6" transform="translate(0,0)"/>
<path d="" fill="#3B3733" transform="translate(0,0)"/>
<path d="" fill="#AAA7A6" transform="translate(0,0)"/>
<path d="" fill="#AAA7A6" transform="translate(0,0)"/>
<path d="" fill="#3B3733" transform="translate(0,0)"/>
<path d="" fill="#3B3733" transform="translate(0,0)"/>
<path d="" fill="#AAA7A6" transform="translate(0,0)"/>
<path d="" fill="#AAA7A6" transform="translate(0,0)"/>
<path d="" fill="#AAA7A6" transform="translate(0,0)"/>
<path d="" fill="#3B3733" transform="translate(0,0)"/>
<path d="" fill="#AAA7A6" transform="translate(0,0)"/>
<path d="" fill="#AAA7A6" transform="translate(0,0)"/>
<path d="" fill="#3B3733" transform="translate(0,0)"/>
<path d="" fill="#AAA7A6" transform="translate(0,0)"/>
<path d="" fill="#3B3733" transform="translate(0,0)"/>
<path d="" fill="#3B3733" transform="translate(0,0)"/>
<path d="" fill="#3B3733" transform="translate(0,0)"/>
<path d="" fill="#AAA7A6" transform="translate(0,0)"/>
<path d="" fill="#3B3733" transform="translate(0,0)"/>
<path d="" fill="#3B3733" transform="translate(0,0)"/>
<path d="" fill="#3B3733" transform="translate(0,0)"/>
<path d="" fill="#3B3733" transform="translate(0,0)"/>
<path d="" fill="#3B3733" transform="translate(0,0)"/>
<path d="" fill="#3B3733" transform="translate(0,0)"/>
<path d="" fill="#3B3733" transform="translate(0,0)"/>
<path d="" fill="#3B3733" transform="translate(0,0)"/>
<path d="" fill="#AAA7A6" transform="translate(0,0)"/>
<path d="" fill="#AAA7A6" transform="translate(0,0)"/>
<path d="" fill="#AAA7A6" transform="translate(0,0)"/>
<path d="" fill="#3B3733" transform="translate(0,0)"/>
<path d="" fill="#3B3733" transform="translate(0,0)"/>
<path d="" fill="#AAA7A6" transform="translate(0,0)"/>
<path d="" fill="#AAA7A6" transform="translate(0,0)"/>
<path d="" fill="#3B3733" transform="translate(0,0)"/>
<path d="" fill="#AAA7A6" transform="translate(0,0)"/>
<path d="" fill="#3B3733" transform="translate(0,0)"/>
<path d="" fill="#3B3733" transform="translate(0,0)"/>
<path d="" fill="#3B3733" transform="translate(0,0)"/>
<path d="" fill="#AAA7A6" transform="translate(0,0)"/>
<path d="" fill="#3B3733" transform="translate(0,0)"/>
<path d="" fill="#3B3733" transform="translate(0,0)"/>
<path d="" fill="#3B3733" transform="translate(0,0)"/>
<path d="" fill="#3B3733" transform="translate(0,0)"/>
<path d="" fill="#3B3733" transform="translate(0,0)"/>
<path d="" fill="#3B3733" transform="translate(0,0)"/>
<path d="" fill="#3B3733" transform="translate(0,0)"/>
<path d="" fill="#3B3733" transform="translate(0,0)"/>
<path d="" fill="#AAA7A6" transform="translate(0,0)"/>
<path d="" fill="#AAA7A6" transform="translate(0,0)"/>
<path d="" fill="#AAA7A6" transform="translate(0,0)"/>
<path d="" fill="#3B3733" transform="translate(0,0)"/>
<path d="" fill="#3B3733" transform="translate(0,0)"/>
<path d="" fill="#3B3733" transform="translate(0,0)"/>
<path d="" fill="#AAA7A6" transform="translate(0,0)"/>
<path d="" fill="#AAA7A6" transform="translate(0,0)"/>
<path d="" fill="#AAA7A6" transform="translate(0,0)"/>
<path d="" fill="#3B3733" transform="translate(0,0)"/>
<path d="" fill="#3B3733" transform="translate(0,0)"/>
<path d="" fill="#AAA7A6" transform="translate(0,0)"/>
<path d="" fill="#F9F9F9" transform="translate(0,0)"/>
</svg>
